<svg width="12" height="12" viewBox="0 0 12 12" fill="none" xmlns="http://www.w3.org/2000/svg">
<path d="M8.50246 4.50081C7.99222 3.65252 7.06268 3.08464 6.0013 3.08464C4.3913 3.08464 3.08464 4.3913 3.08464 6.0013C3.08464 7.6113 4.3913 8.91797 6.0013 8.91797C7.06268 8.91797 7.99222 8.35009 8.50246 7.50181L7.50216 6.90209C7.19614 7.41099 6.63871 7.7513 6.0013 7.7513C5.03443 7.7513 4.2513 6.96818 4.2513 6.0013C4.2513 5.03443 5.03443 4.2513 6.0013 4.2513C6.63889 4.2513 7.19661 4.59189 7.50251 5.1011L8.50246 4.50081ZM11.8346 6.0013C11.8346 2.78129 9.2213 0.167969 6.0013 0.167969C2.78129 0.167969 0.167969 2.78129 0.167969 6.0013C0.167969 9.2213 2.78129 11.8346 6.0013 11.8346C9.2213 11.8346 11.8346 9.2213 11.8346 6.0013ZM1.33464 6.0013C1.33464 3.42295 3.42295 1.33464 6.0013 1.33464C8.57964 1.33464 10.668 3.42295 10.668 6.0013C10.668 8.57964 8.57964 10.668 6.0013 10.668C3.42295 10.668 1.33464 8.57964 1.33464 6.0013Z" fill="#233144"/>
<path d="M8.50246 4.50081C7.99222 3.65252 7.06268 3.08464 6.0013 3.08464C4.3913 3.08464 3.08464 4.3913 3.08464 6.0013C3.08464 7.6113 4.3913 8.91797 6.0013 8.91797C7.06268 8.91797 7.99222 8.35009 8.50246 7.50181L7.50216 6.90209C7.19614 7.41099 6.63871 7.7513 6.0013 7.7513C5.03443 7.7513 4.2513 6.96818 4.2513 6.0013C4.2513 5.03443 5.03443 4.2513 6.0013 4.2513C6.63889 4.2513 7.19661 4.59189 7.50251 5.1011L8.50246 4.50081ZM11.8346 6.0013C11.8346 2.78129 9.2213 0.167969 6.0013 0.167969C2.78129 0.167969 0.167969 2.78129 0.167969 6.0013C0.167969 9.2213 2.78129 11.8346 6.0013 11.8346C9.2213 11.8346 11.8346 9.2213 11.8346 6.0013ZM1.33464 6.0013C1.33464 3.42295 3.42295 1.33464 6.0013 1.33464C8.57964 1.33464 10.668 3.42295 10.668 6.0013C10.668 8.57964 8.57964 10.668 6.0013 10.668C3.42295 10.668 1.33464 8.57964 1.33464 6.0013Z" fill="#1B2839"/>
<path d="M8.50246 4.50081C7.99222 3.65252 7.06268 3.08464 6.0013 3.08464C4.3913 3.08464 3.08464 4.3913 3.08464 6.0013C3.08464 7.6113 4.3913 8.91797 6.0013 8.91797C7.06268 8.91797 7.99222 8.35009 8.50246 7.50181L7.50216 6.90209C7.19614 7.41099 6.63871 7.7513 6.0013 7.7513C5.03443 7.7513 4.2513 6.96818 4.2513 6.0013C4.2513 5.03443 5.03443 4.2513 6.0013 4.2513C6.63889 4.2513 7.19661 4.59189 7.50251 5.1011L8.50246 4.50081ZM11.8346 6.0013C11.8346 2.78129 9.2213 0.167969 6.0013 0.167969C2.78129 0.167969 0.167969 2.78129 0.167969 6.0013C0.167969 9.2213 2.78129 11.8346 6.0013 11.8346C9.2213 11.8346 11.8346 9.2213 11.8346 6.0013ZM1.33464 6.0013C1.33464 3.42295 3.42295 1.33464 6.0013 1.33464C8.57964 1.33464 10.668 3.42295 10.668 6.0013C10.668 8.57964 8.57964 10.668 6.0013 10.668C3.42295 10.668 1.33464 8.57964 1.33464 6.0013Z" stroke="#233144"/>
<path d="M8.50246 4.50081C7.99222 3.65252 7.06268 3.08464 6.0013 3.08464C4.3913 3.08464 3.08464 4.3913 3.08464 6.0013C3.08464 7.6113 4.3913 8.91797 6.0013 8.91797C7.06268 8.91797 7.99222 8.35009 8.50246 7.50181L7.50216 6.90209C7.19614 7.41099 6.63871 7.7513 6.0013 7.7513C5.03443 7.7513 4.2513 6.96818 4.2513 6.0013C4.2513 5.03443 5.03443 4.2513 6.0013 4.2513C6.63889 4.2513 7.19661 4.59189 7.50251 5.1011L8.50246 4.50081ZM11.8346 6.0013C11.8346 2.78129 9.2213 0.167969 6.0013 0.167969C2.78129 0.167969 0.167969 2.78129 0.167969 6.0013C0.167969 9.2213 2.78129 11.8346 6.0013 11.8346C9.2213 11.8346 11.8346 9.2213 11.8346 6.0013ZM1.33464 6.0013C1.33464 3.42295 3.42295 1.33464 6.0013 1.33464C8.57964 1.33464 10.668 3.42295 10.668 6.0013C10.668 8.57964 8.57964 10.668 6.0013 10.668C3.42295 10.668 1.33464 8.57964 1.33464 6.0013Z" stroke="#1B2839"/>
</svg>
