<svg width="12" height="14" viewBox="0 0 12 14" fill="none" xmlns="http://www.w3.org/2000/svg">
<path d="M10.6986 1.45674C9.04279 -0.199121 6.34631 -0.199121 4.6922 1.45674L0.104313 6.04111C0.0744304 6.071 0.05861 6.11143 0.05861 6.15361C0.05861 6.1958 0.0744304 6.23623 0.104313 6.26611L0.752946 6.91475C0.782595 6.94426 0.822729 6.96084 0.864567 6.96084C0.906405 6.96084 0.946539 6.94426 0.976188 6.91475L5.56408 2.33037C6.13361 1.76084 6.89123 1.44795 7.69631 1.44795C8.50138 1.44795 9.259 1.76084 9.82677 2.33037C10.3963 2.8999 10.7092 3.65752 10.7092 4.46084C10.7092 5.26592 10.3963 6.02178 9.82677 6.59131L5.15099 11.2653L4.39338 12.0229C3.68498 12.7313 2.53361 12.7313 1.82521 12.0229C1.48244 11.6802 1.29435 11.2249 1.29435 10.7397C1.29435 10.2546 1.48244 9.79932 1.82521 9.45654L6.46408 4.81943C6.58185 4.70342 6.73654 4.63838 6.90177 4.63838H6.90353C7.06877 4.63838 7.2217 4.70342 7.33771 4.81943C7.45548 4.93721 7.51877 5.09189 7.51877 5.25713C7.51877 5.42061 7.45373 5.57529 7.33771 5.69131L3.54611 9.47939C3.51623 9.50928 3.50041 9.54971 3.50041 9.5919C3.50041 9.63408 3.51623 9.67451 3.54611 9.70439L4.19474 10.353C4.22439 10.3825 4.26453 10.3991 4.30636 10.3991C4.3482 10.3991 4.38834 10.3825 4.41798 10.353L8.20783 6.56318C8.55763 6.21338 8.74924 5.74932 8.74924 5.25537C8.74924 4.76143 8.55587 4.29561 8.20783 3.94756C7.48537 3.2251 6.31115 3.22686 5.58869 3.94756L5.13869 4.39932L0.951579 8.58467C0.667395 8.86718 0.442127 9.20331 0.28884 9.57355C0.135553 9.9438 0.0572971 10.3408 0.05861 10.7415C0.05861 11.5554 0.376774 12.32 0.951579 12.8948C1.54748 13.489 2.32795 13.786 3.10841 13.786C3.88888 13.786 4.66935 13.489 5.26349 12.8948L10.6986 7.46318C11.4985 6.66162 11.9414 5.59463 11.9414 4.46084C11.9432 3.32529 11.5002 2.2583 10.6986 1.45674Z" fill="#4C7AC2"/>
</svg>
