<svg width="138" height="49" viewBox="0 0 138 49" fill="none" xmlns="http://www.w3.org/2000/svg">
<g clip-path="url(#clip0_703_3724)">
<path d="M64.8149 13.3036C64.5154 13.3082 64.2302 13.4284 64.022 13.6379C63.8134 13.8474 63.6985 14.1291 63.7026 14.4211C63.7026 20.596 58.7886 25.619 52.7563 25.619C46.7245 25.619 41.7908 20.5941 41.7908 14.4211C41.7908 8.24818 46.7051 3.22328 52.7466 3.22328C53.0457 3.21826 53.3305 3.09782 53.5386 2.88835C53.7468 2.67888 53.8613 2.39747 53.8571 2.10578C53.8613 1.81409 53.7468 1.53268 53.5386 1.32321C53.3305 1.11374 53.0457 0.993299 52.7466 0.988281C45.4813 0.988281 39.5703 7.01438 39.5703 14.4211C39.5703 21.8279 45.4813 27.8539 52.7466 27.8539C60.0122 27.8539 65.9254 21.8279 65.9254 14.4211C65.9296 14.1294 65.8146 13.848 65.6069 13.6386C65.3988 13.4291 65.114 13.3087 64.8149 13.3036Z" fill="#4C7AC2"/>
<path d="M84.0515 0.988281C76.7859 0.988281 70.875 7.01438 70.875 14.4211C70.875 21.8279 76.7859 27.8539 84.0515 27.8539C91.3165 27.8539 97.2279 21.8279 97.2279 14.4211C97.2279 7.01438 91.3244 0.988281 84.0515 0.988281ZM94.9973 14.4211C94.9973 20.596 90.0833 25.619 84.0515 25.619C78.0192 25.619 73.1052 20.5941 73.1052 14.4211C73.1052 8.24818 78.0173 3.22328 84.0515 3.22328C90.0852 3.22328 95.0149 8.2463 95.0149 14.4211H94.9973Z" fill="#4C7AC2"/>
<path d="M20.7897 4.68229C17.6153 2.1803 12.7052 0.914062 6.19802 0.914062H1.77656C1.00837 0.914062 0.658489 1.43658 0.658489 1.92286C0.658489 2.40914 1.00837 2.93356 1.77656 2.93356H6.19802C12.1754 2.93356 16.591 4.04724 19.3197 6.24411C21.6361 8.09008 22.8108 10.7961 22.8108 14.2859C22.8108 17.7757 21.638 20.4817 19.3159 22.3296C16.591 24.5245 12.1774 25.6382 6.19802 25.6382H2.81254V12.4456C2.81686 12.3094 2.79258 12.1738 2.74119 12.0471C2.6898 11.9203 2.61238 11.8052 2.5137 11.7088C2.41502 11.6123 2.29716 11.5366 2.16737 11.4862C2.03757 11.4358 1.8986 11.4119 1.75897 11.4158C1.61546 11.4075 1.47172 11.428 1.33666 11.4761C1.2016 11.5241 1.07811 11.5987 0.973826 11.6953C0.869546 11.7918 0.786709 11.9082 0.730447 12.0373C0.674186 12.1664 0.6457 12.3054 0.646761 12.4456V26.605C0.641089 26.8458 0.722776 27.0809 0.87741 27.2687C0.986273 27.3964 1.12433 27.4974 1.28049 27.5637C1.43665 27.6299 1.60656 27.6595 1.77656 27.6501H6.19802C12.7071 27.6501 17.6172 26.3819 20.7916 23.8819C23.6161 21.6316 25.0489 18.3993 25.0489 14.2783C25.0489 10.1573 23.6161 6.93254 20.7897 4.68229Z" fill="#4C7AC2"/>
<path d="M32.2255 0.915888C32.0823 0.907523 31.9388 0.927963 31.804 0.975936C31.6692 1.0239 31.5458 1.09839 31.4418 1.19476C31.3377 1.29114 31.255 1.40735 31.1988 1.53619C31.1426 1.66503 31.1142 1.80375 31.1153 1.94376V26.6297C31.1153 26.9109 31.2298 27.1807 31.4336 27.3795C31.6374 27.5783 31.9138 27.6901 32.202 27.6901C32.4903 27.6901 32.7667 27.5783 32.9706 27.3795C33.1744 27.1807 33.2889 26.9109 33.2889 26.6297V1.94376C33.293 1.80687 33.2682 1.67062 33.2161 1.54346C33.164 1.4163 33.0857 1.30095 32.986 1.20456C32.8862 1.10818 32.7673 1.03282 32.6365 0.983159C32.5056 0.933497 32.3658 0.910601 32.2255 0.915888Z" fill="#4C7AC2"/>
<path d="M127.192 1.944L127.174 1.90395C127.094 1.72916 126.965 1.58065 126.8 1.47641C126.636 1.37217 126.444 1.31666 126.247 1.3166H126.211C126.004 1.31516 125.803 1.37937 125.638 1.49947C125.473 1.61957 125.352 1.78902 125.294 1.98213L119.856 14.9974L114.439 1.93446L114.424 1.90014C114.338 1.7226 114.202 1.573 114.031 1.46943C113.861 1.36587 113.663 1.31279 113.462 1.3166C113.263 1.31715 113.067 1.37491 112.901 1.48271C112.734 1.59051 112.604 1.74361 112.526 1.92302L102.328 26.5499C102.244 26.683 102.2 26.8361 102.199 26.9923C102.194 27.2251 102.272 27.4524 102.42 27.6354C102.567 27.8184 102.775 27.9458 103.008 27.9958C103.241 28.0458 103.485 28.0152 103.697 27.9094C103.91 27.8036 104.078 27.6291 104.173 27.4157L113.464 5.01615L118.753 17.6729L115.077 26.5499C114.992 26.6829 114.948 26.8361 114.948 26.9923C114.942 27.2257 115.02 27.4538 115.167 27.6374C115.315 27.8211 115.524 27.9488 115.758 27.9987C115.991 28.0485 116.236 28.0174 116.449 27.9107C116.661 27.8039 116.829 27.6283 116.924 27.4138L119.856 20.3579L122.788 27.4138L122.802 27.4462C122.9 27.6564 123.07 27.827 123.283 27.9292C123.495 28.0314 123.738 28.0589 123.969 28.0071C124.2 27.9554 124.405 27.8276 124.551 27.6451C124.697 27.4627 124.773 27.2368 124.768 27.0056C124.768 26.8502 124.724 26.6977 124.641 26.5652L120.955 17.6729L126.246 5.01615L135.529 27.4004L135.542 27.4328C135.641 27.643 135.811 27.8136 136.023 27.9158C136.236 28.018 136.478 28.0455 136.709 27.9938C136.94 27.942 137.146 27.8142 137.292 27.6318C137.437 27.4493 137.514 27.2235 137.509 26.9923V26.7654L127.192 1.944Z" fill="url(#paint0_radial_703_3724)"/>
</g>
<path d="M3.4375 47.2266H0.96875V39.2266H3.54688C4.32292 39.2266 4.98698 39.3867 5.53906 39.707C6.09115 40.0247 6.51432 40.4818 6.80859 41.0781C7.10286 41.6719 7.25 42.3828 7.25 43.2109C7.25 44.0443 7.10156 44.7617 6.80469 45.3633C6.50781 45.9622 6.07552 46.4232 5.50781 46.7461C4.9401 47.0664 4.25 47.2266 3.4375 47.2266ZM1.9375 46.3672H3.375C4.03646 46.3672 4.58464 46.2396 5.01953 45.9844C5.45443 45.7292 5.77865 45.3659 5.99219 44.8945C6.20573 44.4232 6.3125 43.862 6.3125 43.2109C6.3125 42.5651 6.20703 42.0091 5.99609 41.543C5.78516 41.0742 5.47005 40.7148 5.05078 40.4648C4.63151 40.2122 4.10938 40.0859 3.48438 40.0859H1.9375V46.3672ZM9.84375 39.2266V47.2266H8.875V39.2266H9.84375ZM17.2549 41.7266C17.1689 41.4635 17.0557 41.2279 16.915 41.0195C16.777 40.8086 16.6117 40.6289 16.4189 40.4805C16.2288 40.332 16.0127 40.2187 15.7705 40.1406C15.5283 40.0625 15.2627 40.0234 14.9736 40.0234C14.4997 40.0234 14.0687 40.1458 13.6807 40.3906C13.2926 40.6354 12.984 40.9961 12.7549 41.4727C12.5257 41.9492 12.4111 42.5339 12.4111 43.2266C12.4111 43.9193 12.527 44.5039 12.7588 44.9805C12.9906 45.457 13.3044 45.8177 13.7002 46.0625C14.096 46.3073 14.5413 46.4297 15.0361 46.4297C15.4945 46.4297 15.8981 46.332 16.2471 46.1367C16.5986 45.9388 16.8721 45.6602 17.0674 45.3008C17.2653 44.9388 17.3643 44.513 17.3643 44.0234L17.6611 44.0859H15.2549V43.2266H18.3018V44.0859C18.3018 44.7448 18.1611 45.3177 17.8799 45.8047C17.6012 46.2917 17.2158 46.6693 16.7236 46.9375C16.234 47.2031 15.6715 47.3359 15.0361 47.3359C14.3278 47.3359 13.7054 47.1693 13.1689 46.8359C12.6351 46.5026 12.2184 46.0286 11.9189 45.4141C11.6221 44.7995 11.4736 44.0703 11.4736 43.2266C11.4736 42.5937 11.5583 42.0247 11.7275 41.5195C11.8994 41.0117 12.1416 40.5794 12.4541 40.2227C12.7666 39.8659 13.1364 39.5924 13.5635 39.4023C13.9906 39.2122 14.4606 39.1172 14.9736 39.1172C15.3955 39.1172 15.7887 39.181 16.1533 39.3086C16.5205 39.4336 16.8473 39.612 17.1338 39.8437C17.4229 40.0729 17.6637 40.3477 17.8564 40.668C18.0492 40.9857 18.182 41.3385 18.2549 41.7266H17.2549ZM20.9297 39.2266V47.2266H19.9609V39.2266H20.9297ZM22.4346 40.0859V39.2266H28.4346V40.0859H25.9189V47.2266H24.9502V40.0859H22.4346ZM30.8984 39.2266V47.2266H29.9297V39.2266H30.8984ZM32.5752 47.2266V46.5234L36.8877 40.0859H32.5283V39.2266H38.0439V39.9297L33.7314 46.3672H38.0908V47.2266H32.5752ZM39.7158 47.2266V39.2266H44.5439V40.0859H40.6846V42.7891H44.2939V43.6484H40.6846V46.3672H44.6064V47.2266H39.7158ZM48.6963 39.2266H49.8057L52.0244 42.9609H52.1182L54.3369 39.2266H55.4463L52.5557 43.9297V47.2266H51.5869V43.9297L48.6963 39.2266ZM63.0732 43.2266C63.0732 44.0703 62.9209 44.7995 62.6162 45.4141C62.3115 46.0286 61.8936 46.5026 61.3623 46.8359C60.8311 47.1693 60.2243 47.3359 59.542 47.3359C58.8597 47.3359 58.2529 47.1693 57.7217 46.8359C57.1904 46.5026 56.7725 46.0286 56.4678 45.4141C56.1631 44.7995 56.0107 44.0703 56.0107 43.2266C56.0107 42.3828 56.1631 41.6536 56.4678 41.0391C56.7725 40.4245 57.1904 39.9505 57.7217 39.6172C58.2529 39.2839 58.8597 39.1172 59.542 39.1172C60.2243 39.1172 60.8311 39.2839 61.3623 39.6172C61.8936 39.9505 62.3115 40.4245 62.6162 41.0391C62.9209 41.6536 63.0732 42.3828 63.0732 43.2266ZM62.1357 43.2266C62.1357 42.5339 62.0199 41.9492 61.7881 41.4727C61.5589 40.9961 61.2477 40.6354 60.8545 40.3906C60.4639 40.1458 60.0264 40.0234 59.542 40.0234C59.0576 40.0234 58.6188 40.1458 58.2256 40.3906C57.835 40.6354 57.5238 40.9961 57.292 41.4727C57.0628 41.9492 56.9482 42.5339 56.9482 43.2266C56.9482 43.9193 57.0628 44.5039 57.292 44.9805C57.5238 45.457 57.835 45.8177 58.2256 46.0625C58.6188 46.3073 59.0576 46.4297 59.542 46.4297C60.0264 46.4297 60.4639 46.3073 60.8545 46.0625C61.2477 45.8177 61.5589 45.457 61.7881 44.9805C62.0199 44.5039 62.1357 43.9193 62.1357 43.2266ZM69.9521 39.2266H70.9209V44.5234C70.9209 45.0703 70.792 45.5586 70.5342 45.9883C70.279 46.4154 69.9183 46.7526 69.4521 47C68.986 47.2448 68.4391 47.3672 67.8115 47.3672C67.1839 47.3672 66.637 47.2448 66.1709 47C65.7048 46.7526 65.3428 46.4154 65.085 45.9883C64.8298 45.5586 64.7021 45.0703 64.7021 44.5234V39.2266H65.6709V44.4453C65.6709 44.8359 65.7568 45.1836 65.9287 45.4883C66.1006 45.7904 66.3454 46.0286 66.6631 46.2031C66.9834 46.375 67.3662 46.4609 67.8115 46.4609C68.2568 46.4609 68.6396 46.375 68.96 46.2031C69.2803 46.0286 69.5251 45.7904 69.6943 45.4883C69.8662 45.1836 69.9521 44.8359 69.9521 44.4453V39.2266ZM72.8555 47.2266V39.2266H75.5586C76.1836 39.2266 76.6966 39.3333 77.0977 39.5469C77.4987 39.7578 77.7956 40.0482 77.9883 40.418C78.181 40.7878 78.2773 41.2083 78.2773 41.6797C78.2773 42.151 78.181 42.569 77.9883 42.9336C77.7956 43.2982 77.5 43.5846 77.1016 43.793C76.7031 43.9987 76.194 44.1016 75.5742 44.1016H73.3867V43.2266H75.543C75.9701 43.2266 76.3138 43.1641 76.5742 43.0391C76.8372 42.9141 77.0273 42.737 77.1445 42.5078C77.2643 42.276 77.3242 42 77.3242 41.6797C77.3242 41.3594 77.2643 41.0794 77.1445 40.8398C77.0247 40.6003 76.8333 40.4154 76.5703 40.2852C76.3073 40.1523 75.9596 40.0859 75.5273 40.0859H73.8242V47.2266H72.8555ZM76.6211 43.6328L78.5898 47.2266H77.4648L75.5273 43.6328H76.6211ZM89.4229 41.7266H88.4541C88.3968 41.4479 88.2965 41.2031 88.1533 40.9922C88.0127 40.7812 87.8408 40.6042 87.6377 40.4609C87.4372 40.3151 87.2145 40.2057 86.9697 40.1328C86.7249 40.0599 86.4697 40.0234 86.2041 40.0234C85.7197 40.0234 85.2809 40.1458 84.8877 40.3906C84.4971 40.6354 84.1859 40.9961 83.9541 41.4727C83.7249 41.9492 83.6104 42.5339 83.6104 43.2266C83.6104 43.9193 83.7249 44.5039 83.9541 44.9805C84.1859 45.457 84.4971 45.8177 84.8877 46.0625C85.2809 46.3073 85.7197 46.4297 86.2041 46.4297C86.4697 46.4297 86.7249 46.3932 86.9697 46.3203C87.2145 46.2474 87.4372 46.1393 87.6377 45.9961C87.8408 45.8503 88.0127 45.6719 88.1533 45.4609C88.2965 45.2474 88.3968 45.0026 88.4541 44.7266H89.4229C89.3499 45.1354 89.2171 45.5013 89.0244 45.8242C88.8317 46.1471 88.5921 46.4219 88.3057 46.6484C88.0192 46.8724 87.6976 47.043 87.3408 47.1602C86.9867 47.2773 86.6077 47.3359 86.2041 47.3359C85.5218 47.3359 84.915 47.1693 84.3838 46.8359C83.8525 46.5026 83.4346 46.0286 83.1299 45.4141C82.8252 44.7995 82.6729 44.0703 82.6729 43.2266C82.6729 42.3828 82.8252 41.6536 83.1299 41.0391C83.4346 40.4245 83.8525 39.9505 84.3838 39.6172C84.915 39.2839 85.5218 39.1172 86.2041 39.1172C86.6077 39.1172 86.9867 39.1758 87.3408 39.293C87.6976 39.4102 88.0192 39.582 88.3057 39.8086C88.5921 40.0326 88.8317 40.306 89.0244 40.6289C89.2171 40.9492 89.3499 41.3151 89.4229 41.7266ZM97.7383 43.2266C97.7383 44.0703 97.5859 44.7995 97.2812 45.4141C96.9766 46.0286 96.5586 46.5026 96.0273 46.8359C95.4961 47.1693 94.8893 47.3359 94.207 47.3359C93.5247 47.3359 92.918 47.1693 92.3867 46.8359C91.8555 46.5026 91.4375 46.0286 91.1328 45.4141C90.8281 44.7995 90.6758 44.0703 90.6758 43.2266C90.6758 42.3828 90.8281 41.6536 91.1328 41.0391C91.4375 40.4245 91.8555 39.9505 92.3867 39.6172C92.918 39.2839 93.5247 39.1172 94.207 39.1172C94.8893 39.1172 95.4961 39.2839 96.0273 39.6172C96.5586 39.9505 96.9766 40.4245 97.2812 41.0391C97.5859 41.6536 97.7383 42.3828 97.7383 43.2266ZM96.8008 43.2266C96.8008 42.5339 96.6849 41.9492 96.4531 41.4727C96.224 40.9961 95.9128 40.6354 95.5195 40.3906C95.1289 40.1458 94.6914 40.0234 94.207 40.0234C93.7227 40.0234 93.2839 40.1458 92.8906 40.3906C92.5 40.6354 92.1888 40.9961 91.957 41.4727C91.7279 41.9492 91.6133 42.5339 91.6133 43.2266C91.6133 43.9193 91.7279 44.5039 91.957 44.9805C92.1888 45.457 92.5 45.8177 92.8906 46.0625C93.2839 46.3073 93.7227 46.4297 94.207 46.4297C94.6914 46.4297 95.1289 46.3073 95.5195 46.0625C95.9128 45.8177 96.224 45.457 96.4531 44.9805C96.6849 44.5039 96.8008 43.9193 96.8008 43.2266ZM99.3672 39.2266H100.523L103.242 45.8672H103.336L106.055 39.2266H107.211V47.2266H106.305V41.1484H106.227L103.727 47.2266H102.852L100.352 41.1484H100.273V47.2266H99.3672V39.2266ZM109.153 47.2266V39.2266H111.856C112.484 39.2266 112.997 39.3398 113.396 39.5664C113.797 39.7904 114.093 40.0938 114.286 40.4766C114.479 40.8594 114.575 41.2865 114.575 41.7578C114.575 42.2292 114.479 42.6576 114.286 43.043C114.096 43.4284 113.802 43.7357 113.403 43.9648C113.005 44.1914 112.494 44.3047 111.872 44.3047H109.935V43.4453H111.841C112.271 43.4453 112.616 43.3711 112.876 43.2227C113.136 43.0742 113.325 42.8737 113.442 42.6211C113.562 42.3659 113.622 42.0781 113.622 41.7578C113.622 41.4375 113.562 41.151 113.442 40.8984C113.325 40.6458 113.135 40.4479 112.872 40.3047C112.609 40.1589 112.26 40.0859 111.825 40.0859H110.122V47.2266H109.153ZM115.647 47.2266H114.632L117.569 39.2266H118.569L121.507 47.2266H120.491L118.101 40.4922H118.038L115.647 47.2266ZM116.022 44.1016H120.116V44.9609H116.022V44.1016ZM129.097 39.2266V47.2266H128.159L123.8 40.9453H123.722V47.2266H122.753V39.2266H123.69L128.065 45.5234H128.144V39.2266H129.097ZM130.348 39.2266H131.457L133.676 42.9609H133.77L135.988 39.2266H137.098L134.207 43.9297V47.2266H133.238V43.9297L130.348 39.2266Z" fill="black"/>
<defs>
<radialGradient id="paint0_radial_703_3724" cx="0" cy="0" r="1" gradientUnits="userSpaceOnUse" gradientTransform="translate(119.854 14.6745) rotate(90) scale(13.3581 17.6549)">
<stop stop-color="#4C7AC2" stop-opacity="0.53"/>
<stop offset="1" stop-color="#4C7AC2"/>
</radialGradient>
<clipPath id="clip0_703_3724">
<rect width="138" height="28.2273" fill="white"/>
</clipPath>
</defs>
</svg>
