<svg width="84" height="84" viewBox="0 0 84 84" fill="none" xmlns="http://www.w3.org/2000/svg">
<path d="M41.5066 1.07161C41.5986 0.513297 42.4014 0.51329 42.4934 1.07161L48.0369 34.7268C48.1414 35.3613 48.6387 35.8586 49.2732 35.9631L82.9284 41.5066C83.4867 41.5986 83.4867 42.4014 82.9284 42.4934L49.2732 48.0369C48.6387 48.1414 48.1414 48.6387 48.0369 49.2732L42.4934 82.9284C42.4014 83.4867 41.5986 83.4867 41.5066 82.9284L35.9631 49.2732C35.8586 48.6387 35.3613 48.1414 34.7268 48.0369L1.07161 42.4934C0.513297 42.4014 0.51329 41.5986 1.07161 41.5066L34.7268 35.9631C35.3613 35.8586 35.8586 35.3613 35.9631 34.7268L41.5066 1.07161Z" stroke="#4C7AC2"/>
</svg>
