<svg width="1892" height="98" viewBox="0 0 1892 98" fill="none" xmlns="http://www.w3.org/2000/svg">
<path fill-rule="evenodd" clip-rule="evenodd" d="M1682.24 2.27344L1716.28 64.2734V95.3643H1738.65V64.2734L1772.69 2.27344H1747.56L1727.88 41.228H1727.06L1707.38 2.27344H1682.24ZM1727.47 39.8202L1707.99 1.27344H1680.55L1715.28 64.53V96.3643H1739.65V64.5298L1774.38 1.27344H1746.94L1727.47 39.8202Z" fill="#4C7AC2"/>
<path fill-rule="evenodd" clip-rule="evenodd" d="M1647.24 95.3643H1666.33V2.27344H1643.87V55.9098H1643.1L1606.46 2.27344H1587.1V95.3643H1609.6V41.6371H1610.19L1647.24 95.3643ZM1610.6 43.9919L1646.71 96.3643H1667.33V1.27344H1642.87V53.8042L1606.99 1.27344H1586.1V96.3643H1610.6V43.9919Z" fill="#4C7AC2"/>
<path fill-rule="evenodd" clip-rule="evenodd" d="M1502.09 95.3643L1508.21 75.8189H1540.36L1546.5 95.3643H1570.68L1539.27 2.27344H1509.31L1477.9 95.3643H1502.09ZM1513.57 58.728H1534.99L1524.63 25.728H1523.9L1513.57 58.728ZM1524.27 27.91L1514.93 57.728H1533.63L1524.27 27.91ZM1539.62 76.8189L1545.76 96.3643H1572.07L1539.99 1.27344H1508.6L1476.51 96.3643H1502.82L1508.94 76.8189H1539.62Z" fill="#4C7AC2"/>
<path fill-rule="evenodd" clip-rule="evenodd" d="M1441.76 2.27344H1403.3V95.3643H1425.8V66.4553H1441.07C1448.19 66.4553 1454.35 65.1371 1459.53 62.5007C1464.71 59.8643 1468.69 56.1522 1471.48 51.3643C1474.3 46.5462 1475.71 40.9249 1475.71 34.5007C1475.71 28.1068 1474.33 22.5007 1471.57 17.6825C1468.82 12.834 1464.89 9.06131 1459.8 6.36435C1454.74 3.63707 1448.73 2.27344 1441.76 2.27344ZM1460.28 5.48405C1465.53 8.2667 1469.59 12.1708 1472.44 17.1881C1475.3 22.1787 1476.71 27.9603 1476.71 34.5007C1476.71 41.0752 1475.27 46.876 1472.35 51.8692C1469.46 56.8309 1465.33 60.6733 1459.98 63.392C1454.63 66.1141 1448.32 67.4553 1441.07 67.4553H1426.8V96.3643H1402.3V1.27344H1441.76C1448.86 1.27344 1455.04 2.66317 1460.28 5.48405ZM1425.8 48.728H1436.89C1440.29 48.728 1443.12 48.1371 1445.39 46.9553C1447.69 45.7734 1449.44 44.1219 1450.62 42.0007C1451.8 39.8492 1452.39 37.3492 1452.39 34.5007C1452.39 31.6219 1451.8 29.1371 1450.62 27.0462C1449.44 24.925 1447.69 23.2886 1445.39 22.1371C1443.09 20.9856 1440.26 20.4098 1436.89 20.4098H1425.8V48.728ZM1426.8 21.4098V47.728H1436.89C1440.18 47.728 1442.84 47.1556 1444.93 46.068L1444.94 46.0656C1447.07 44.9687 1448.66 43.4538 1449.74 41.5193C1450.83 39.5374 1451.39 37.2081 1451.39 34.5007C1451.39 31.7601 1450.83 29.4518 1449.75 27.5382L1449.75 27.5329C1448.67 25.5982 1447.08 24.0988 1444.94 23.0315C1442.82 21.9673 1440.15 21.4098 1436.89 21.4098H1426.8Z" fill="#4C7AC2"/>
<path fill-rule="evenodd" clip-rule="evenodd" d="M1306.64 2.27344H1278.78V95.3643H1300.68V37.8643H1301.46L1323.82 94.7734H1337.82L1360.18 38.1825H1360.96V95.3643H1382.87V2.27344H1355L1331.37 59.9098H1330.28L1306.64 2.27344ZM1330.82 58.6043L1307.31 1.27344H1277.78V96.3643H1301.68V41.1771L1323.14 95.7734H1338.5L1359.96 41.4784V96.3643H1383.87V1.27344H1354.33L1330.82 58.6043Z" fill="#4C7AC2"/>
<path fill-rule="evenodd" clip-rule="evenodd" d="M1153.2 37H1128.49L1128.38 36.1288C1128.09 33.8931 1127.5 31.8966 1126.61 30.129C1125.73 28.365 1124.57 26.8652 1123.13 25.6208C1121.69 24.3814 1119.98 23.4279 1117.97 22.7682L1117.96 22.7655L1117.95 22.7627C1115.98 22.0772 1113.78 21.7273 1111.33 21.7273C1106.98 21.7273 1103.29 22.7882 1100.21 24.8715C1097.15 26.9589 1094.76 29.9914 1093.07 34.0238C1091.4 38.0521 1090.55 42.9736 1090.55 48.8182C1090.55 54.9092 1091.42 59.9479 1093.11 63.9702C1094.83 67.97 1097.22 70.9375 1100.23 72.9333C1103.29 74.9046 1106.93 75.9091 1111.19 75.9091C1113.59 75.9091 1115.75 75.6018 1117.66 75.0003L1117.67 74.9991C1119.62 74.3955 1121.31 73.5254 1122.75 72.3966C1124.23 71.2346 1125.43 69.8336 1126.37 68.1873L1126.37 68.1825C1127.34 66.5056 1128.01 64.6028 1128.39 62.4633L1128.53 61.6313L1153.2 61.7793L1153.1 62.8679C1152.69 67.1212 1151.45 71.3005 1149.4 75.4018C1147.38 79.5121 1144.59 83.2552 1141.06 86.6319L1141.06 86.6351C1137.5 90.0067 1133.18 92.6782 1128.1 94.6589C1123.02 96.6518 1117.23 97.6364 1110.74 97.6364C1102.16 97.6364 1094.44 95.7531 1087.61 91.9654L1087.61 91.9628C1080.8 88.137 1075.43 82.5702 1071.49 75.2936C1067.55 67.993 1065.6 59.1538 1065.6 48.8182C1065.6 38.4506 1067.58 29.5938 1071.59 22.2915C1075.58 15.0162 1081 9.4655 1087.84 5.67093C1094.67 1.88475 1102.31 0 1110.74 0C1116.47 0 1121.79 0.801128 1126.69 2.41376C1131.58 3.99532 1135.91 6.32597 1139.65 9.41044C1143.39 12.4684 1146.43 16.2259 1148.76 20.6719C1151.1 25.1347 1152.54 30.217 1153.09 35.9026L1153.2 37ZM1139.01 10.1818C1135.37 7.18182 1131.16 4.90909 1126.37 3.36364C1121.58 1.78788 1116.37 1 1110.74 1C1102.46 1 1094.99 2.84849 1088.33 6.54546C1081.66 10.2424 1076.37 15.6515 1072.46 22.7727C1068.55 29.8939 1066.6 38.5758 1066.6 48.8182C1066.6 59.0303 1068.52 67.697 1072.37 74.8182C1076.22 81.9394 1081.46 87.3636 1088.1 91.0909C1094.77 94.7879 1102.31 96.6364 1110.74 96.6364C1117.13 96.6364 1122.8 95.6667 1127.74 93.7273C1132.71 91.7879 1136.92 89.1818 1140.37 85.9091C1143.83 82.6061 1146.54 78.9546 1148.51 74.9546C1150.35 71.2783 1151.51 67.5508 1151.99 63.7721C1152.03 63.4394 1152.07 63.1062 1152.1 62.7727L1129.37 62.6364C1128.98 64.8788 1128.27 66.8939 1127.24 68.6818C1126.24 70.4394 1124.95 71.9394 1123.37 73.1818C1121.83 74.3939 1120.02 75.3182 1117.96 75.9546C1115.93 76.5909 1113.68 76.9091 1111.19 76.9091C1106.77 76.9091 1102.93 75.8636 1099.69 73.7727C1096.48 71.6515 1093.98 68.5152 1092.19 64.3636C1090.43 60.1818 1089.55 55 1089.55 48.8182C1089.55 42.8788 1090.42 37.8182 1092.15 33.6364C1093.9 29.4545 1096.4 26.2576 1099.65 24.0455C1102.92 21.8333 1106.81 20.7273 1111.33 20.7273C1113.87 20.7273 1116.19 21.0909 1118.28 21.8182C1120.4 22.5152 1122.24 23.5303 1123.78 24.8636C1125.33 26.197 1126.57 27.803 1127.51 29.6818C1128.45 31.5606 1129.07 33.6667 1129.37 36H1152.1C1152.07 35.6644 1152.03 35.3311 1151.99 35C1151.38 29.8301 1150.01 25.2089 1147.87 21.1364C1145.6 16.803 1142.65 13.1515 1139.01 10.1818Z" fill="#4C7AC2"/>
<path fill-rule="evenodd" clip-rule="evenodd" d="M981.005 2.27344H942.551V95.3643H965.051V63.5007H976.575L993.596 95.3643H1018.14L998.845 59.9492C999.15 59.8087 999.451 59.6644 999.748 59.5165C1004.44 57.1782 1008.1 53.9154 1010.73 49.728C1013.55 45.2128 1014.96 39.728 1014.96 33.2734C1014.96 26.9098 1013.58 21.4098 1010.82 16.7734C1008.07 12.1068 1004.14 8.53101 999.051 6.04617C993.99 3.53101 987.975 2.27344 981.005 2.27344ZM999.495 5.15008C994.268 2.55242 988.094 1.27344 981.005 1.27344H941.551V96.3643H966.051V64.5007H975.975L992.997 96.3643H1019.83L1000.23 60.3951C1005.06 57.9819 1008.85 54.6042 1011.58 50.26L1011.58 50.2575C1014.52 45.5527 1015.96 39.8752 1015.96 33.2734C1015.96 26.7636 1014.55 21.081 1011.68 16.2647C1008.82 11.4233 1004.75 7.71661 999.495 5.15008ZM965.051 45.7734H976.142C979.536 45.7734 982.369 45.334 984.642 44.4553C986.945 43.5462 988.687 42.1825 989.869 40.3643C991.051 38.5159 991.642 36.1522 991.642 33.2734C991.642 30.3946 991.051 28.0159 989.869 26.1371C988.687 24.228 986.945 22.8037 984.642 21.8643C982.339 20.8947 979.505 20.4098 976.142 20.4098H965.051V45.7734ZM966.051 21.4098V44.7734H976.142C979.457 44.7734 982.158 44.3433 984.28 43.523C986.413 42.6797 987.976 41.4399 989.028 39.8233C990.078 38.179 990.642 36.0183 990.642 33.2734C990.642 30.528 990.078 28.3479 989.022 26.6695L989.019 26.6634C987.96 24.9535 986.393 23.6588 984.264 22.7903L984.254 22.786C982.108 21.8826 979.416 21.4098 976.142 21.4098H966.051Z" fill="#4C7AC2"/>
<path fill-rule="evenodd" clip-rule="evenodd" d="M899.594 2.27344V60.3643C899.594 63.5765 898.881 66.4401 897.457 68.9553C896.033 71.4704 894.048 73.4401 891.503 74.8643C888.987 76.2886 886.048 77.0007 882.684 77.0007C879.321 77.0007 876.366 76.2886 873.821 74.8643C871.275 73.4401 869.291 71.4704 867.866 68.9553C866.472 66.4401 865.775 63.5765 865.775 60.3643V2.27344H843.275V62.3189C843.275 69.2583 844.912 75.3037 848.184 80.4553C851.457 85.5765 856.048 89.5462 861.957 92.3643C867.866 95.1522 874.775 96.5462 882.684 96.5462C890.503 96.5462 897.366 95.1522 903.275 92.3643C909.184 89.5462 913.791 85.5765 917.094 80.4553C920.397 75.3037 922.048 69.2583 922.048 62.3189V2.27344H899.594ZM868.74 68.4689C867.438 66.1192 866.775 63.4264 866.775 60.3643V1.27344H842.275V62.3189C842.275 69.4215 843.952 75.6585 847.34 80.9915L847.342 80.9937C850.723 86.2847 855.462 90.3748 861.527 93.267L861.531 93.2687C867.598 96.1314 874.658 97.5462 882.684 97.5462C890.622 97.5462 897.636 96.1307 903.702 93.2688L903.706 93.267C909.769 90.3751 914.523 86.286 917.934 80.9973L917.935 80.995C921.355 75.6616 923.048 69.4233 923.048 62.3189V1.27344H898.594V60.3643C898.594 63.4234 897.917 66.1139 896.587 68.4625C895.254 70.8169 893.402 72.6559 891.014 73.9917L891.01 73.9942C888.668 75.3203 885.904 76.0007 882.684 76.0007C879.465 76.0007 876.684 75.3204 874.309 73.9917C871.924 72.6571 870.073 70.8201 868.74 68.4689Z" fill="#4C7AC2"/>
<path fill-rule="evenodd" clip-rule="evenodd" d="M739.864 75.3038L739.862 75.2994C735.854 67.9975 733.875 59.1561 733.875 48.8182C733.875 38.4506 735.854 29.5938 739.862 22.2915L739.864 22.2887C743.888 15.0137 749.337 9.46384 756.21 5.66999C763.068 1.88386 770.768 0 779.284 0C787.77 0 795.454 1.88384 802.311 5.66908C809.214 9.4626 814.68 15.0126 818.705 22.2887C822.745 29.5916 824.739 38.4494 824.739 48.8182C824.739 59.1869 822.745 68.0448 818.705 75.3477C814.68 82.6238 809.214 88.1738 802.311 91.9673C795.454 95.7525 787.77 97.6364 779.284 97.6364C770.766 97.6364 763.066 95.7367 756.207 91.9192C749.337 88.0959 743.889 82.5478 739.864 75.3038ZM801.83 6.54546C795.133 2.84849 787.617 1 779.284 1C770.92 1 763.39 2.84849 756.693 6.54546C749.996 10.2424 744.678 15.6515 740.739 22.7727C736.83 29.8939 734.875 38.5758 734.875 48.8182C734.875 59.0303 736.83 67.697 740.739 74.8182C744.678 81.9091 749.996 87.3182 756.693 91.0455C763.39 94.7727 770.92 96.6364 779.284 96.6364C787.617 96.6364 795.133 94.7879 801.83 91.0909C808.557 87.3939 813.89 81.9849 817.83 74.8636C821.769 67.7424 823.739 59.0606 823.739 48.8182C823.739 38.5758 821.769 29.8939 817.83 22.7727C813.89 15.6515 808.557 10.2424 801.83 6.54546ZM790.228 24.7854L790.224 24.7829C787.234 22.761 783.604 21.7273 779.284 21.7273C774.997 21.7273 771.364 22.7602 768.341 24.7854C765.319 26.8091 762.964 29.8054 761.299 33.8363C759.666 37.8644 758.83 42.8477 758.83 48.8182C758.83 54.7887 759.666 59.772 761.299 63.8001C762.964 67.831 765.319 70.8272 768.341 72.851C771.364 74.8761 774.997 75.9091 779.284 75.9091C783.604 75.9091 787.234 74.8753 790.224 72.8534L790.228 72.851C793.247 70.8283 795.586 67.8342 797.221 63.8058L797.223 63.8C798.887 59.7728 799.739 54.7898 799.739 48.8182C799.739 42.8466 798.887 37.8635 797.223 33.8363L797.221 33.8306C795.586 29.8022 793.247 26.808 790.228 24.7854ZM790.784 73.6818C787.602 75.8333 783.769 76.9091 779.284 76.9091C774.83 76.9091 770.996 75.8333 767.784 73.6818C764.572 71.5303 762.102 68.3636 760.375 64.1818C758.678 60 757.83 54.8788 757.83 48.8182C757.83 42.7576 758.678 37.6364 760.375 33.4545C762.102 29.2727 764.572 26.1061 767.784 23.9545C770.996 21.803 774.83 20.7273 779.284 20.7273C783.769 20.7273 787.602 21.803 790.784 23.9545C793.996 26.1061 796.451 29.2727 798.148 33.4545C799.875 37.6364 800.739 42.7576 800.739 48.8182C800.739 54.8788 799.875 60 798.148 64.1818C796.451 68.3636 793.996 71.5303 790.784 73.6818Z" fill="#4C7AC2"/>
<path fill-rule="evenodd" clip-rule="evenodd" d="M1174.86 75.3038L1174.86 75.2994C1170.85 67.9975 1168.88 59.1561 1168.88 48.8182C1168.88 38.4506 1170.85 29.5938 1174.86 22.2915L1174.86 22.2887C1178.89 15.0137 1184.34 9.46384 1191.21 5.66999C1198.07 1.88386 1205.77 0 1214.28 0C1222.77 0 1230.45 1.88384 1237.31 5.66908C1244.21 9.4626 1249.68 15.0126 1253.7 22.2887C1257.74 29.5916 1259.74 38.4494 1259.74 48.8182C1259.74 59.1869 1257.74 68.0448 1253.7 75.3477C1249.68 82.6238 1244.21 88.1738 1237.31 91.9673C1230.45 95.7525 1222.77 97.6364 1214.28 97.6364C1205.77 97.6364 1198.07 95.7367 1191.21 91.9192C1184.34 88.0959 1178.89 82.5478 1174.86 75.3038ZM1236.83 6.54546C1230.13 2.84849 1222.62 1 1214.28 1C1205.92 1 1198.39 2.84849 1191.69 6.54546C1185 10.2424 1179.68 15.6515 1175.74 22.7727C1171.83 29.8939 1169.88 38.5758 1169.88 48.8182C1169.88 59.0303 1171.83 67.697 1175.74 74.8182C1179.68 81.9091 1185 87.3182 1191.69 91.0455C1198.39 94.7727 1205.92 96.6364 1214.28 96.6364C1222.62 96.6364 1230.13 94.7879 1236.83 91.0909C1243.56 87.3939 1248.89 81.9849 1252.83 74.8636C1256.77 67.7424 1258.74 59.0606 1258.74 48.8182C1258.74 38.5758 1256.77 29.8939 1252.83 22.7727C1248.89 15.6515 1243.56 10.2424 1236.83 6.54546ZM1225.23 24.7854L1225.22 24.7829C1222.23 22.761 1218.6 21.7273 1214.28 21.7273C1210 21.7273 1206.36 22.7602 1203.34 24.7854C1200.32 26.8091 1197.96 29.8054 1196.3 33.8363C1194.67 37.8644 1193.83 42.8477 1193.83 48.8182C1193.83 54.7887 1194.67 59.772 1196.3 63.8001C1197.96 67.831 1200.32 70.8272 1203.34 72.851C1206.36 74.8761 1210 75.9091 1214.28 75.9091C1218.6 75.9091 1222.23 74.8753 1225.22 72.8534L1225.23 72.851C1228.25 70.8283 1230.59 67.8342 1232.22 63.8058L1232.22 63.8C1233.89 59.7728 1234.74 54.7898 1234.74 48.8182C1234.74 42.8466 1233.89 37.8635 1232.22 33.8363L1232.22 33.8306C1230.59 29.8022 1228.25 26.808 1225.23 24.7854ZM1225.78 73.6818C1222.6 75.8333 1218.77 76.9091 1214.28 76.9091C1209.83 76.9091 1206 75.8333 1202.78 73.6818C1199.57 71.5303 1197.1 68.3636 1195.38 64.1818C1193.68 60 1192.83 54.8788 1192.83 48.8182C1192.83 42.7576 1193.68 37.6364 1195.38 33.4545C1197.1 29.2727 1199.57 26.1061 1202.78 23.9545C1206 21.803 1209.83 20.7273 1214.28 20.7273C1218.77 20.7273 1222.6 21.803 1225.78 23.9545C1229 26.1061 1231.45 29.2727 1233.15 33.4545C1234.88 37.6364 1235.74 42.7576 1235.74 48.8182C1235.74 54.8788 1234.88 60 1233.15 64.1818C1231.45 68.3636 1229 71.5303 1225.78 73.6818Z" fill="#4C7AC2"/>
<path fill-rule="evenodd" clip-rule="evenodd" d="M635.713 2.27344L669.759 64.2734V95.3643H692.122V64.2734L726.168 2.27344H701.032L681.35 41.228H680.532L660.85 2.27344H635.713ZM680.941 39.8202L661.465 1.27344H634.023L668.759 64.5299V96.3643H693.122V64.5299L727.858 1.27344H700.416L680.941 39.8202Z" fill="#4C7AC2"/>
<path fill-rule="evenodd" clip-rule="evenodd" d="M521.051 95.3643H585.96V77.0916H543.551V57.9553H582.642V39.6371H543.551V20.5462H585.96V2.27344H521.051V95.3643ZM544.551 21.5462H586.96V1.27344H520.051V96.3643H586.96V76.0916H544.551V58.9553H583.642V38.6371H544.551V21.5462Z" fill="#4C7AC2"/>
<path fill-rule="evenodd" clip-rule="evenodd" d="M427.207 82.5462V95.3643H500.843V77.0916H455.662L500.889 15.0916V2.27344H427.253V20.5462H472.434L427.207 82.5462ZM470.467 21.5462L426.207 82.2202V96.3643H501.843V76.0916H457.629L501.889 15.4176V1.27344H426.253V21.5462H470.467Z" fill="#4C7AC2"/>
<path fill-rule="evenodd" clip-rule="evenodd" d="M407 2.27344H384.5V95.3643H407V2.27344ZM408 1.27344V96.3643H383.5V1.27344H408Z" fill="#4C7AC2"/>
<path fill-rule="evenodd" clip-rule="evenodd" d="M288.43 20.5462H316.702V95.3643H338.884V20.5462H367.112V2.27344H288.43V20.5462ZM339.884 21.5462H368.112V1.27344H287.43V21.5462H315.702V96.3643H339.884V21.5462Z" fill="#4C7AC2"/>
<path fill-rule="evenodd" clip-rule="evenodd" d="M270.949 2.27344H248.449V95.3643H270.949V2.27344ZM271.949 1.27344V96.3643H247.449V1.27344H271.949Z" fill="#4C7AC2"/>
<path fill-rule="evenodd" clip-rule="evenodd" d="M204.251 33.6818L204.051 32.9423C203.562 31.1295 202.849 29.5537 201.92 28.2029L201.914 28.195C200.982 26.81 199.84 25.6398 198.484 24.6797C197.133 23.7227 195.575 22.9971 193.798 22.5099L193.791 22.5079L193.783 22.5058C192.007 21.9902 190.042 21.7273 187.88 21.7273C183.534 21.7273 179.823 22.7747 176.706 24.8329C173.62 26.8909 171.205 29.9074 169.482 33.9386L169.481 33.941C167.761 37.935 166.88 42.8378 166.88 48.6818C166.88 54.5599 167.731 59.5145 169.396 63.5751C171.061 67.6334 173.446 70.6768 176.531 72.7624C179.61 74.8437 183.376 75.9091 187.88 75.9091C191.897 75.9091 195.228 75.2589 197.909 74.0045C200.626 72.7168 202.649 70.9208 204.022 68.6234C205.18 66.6847 205.865 64.4388 206.054 61.8636H187.653V43.4546H229.789V56.7727C229.789 65.2492 227.985 72.5705 224.33 78.6937C220.719 84.7951 215.73 89.4859 209.383 92.7528C203.07 96.0181 195.833 97.6364 187.699 97.6364C178.671 97.6364 170.692 95.6786 163.793 91.7316C156.894 87.7851 151.52 82.158 147.678 74.8758L147.677 74.8742C143.829 67.5515 141.926 58.9003 141.926 48.9546C141.926 41.2201 143.077 34.322 145.402 28.2774C147.719 22.2227 150.956 17.0721 155.123 12.8436L155.125 12.841C159.313 8.62251 164.156 5.42421 169.649 3.2519L169.651 3.25119C175.169 1.08093 181.097 0 187.426 0C192.916 0 198.038 0.786585 202.786 2.36908C207.554 3.94802 211.779 6.18245 215.453 9.07769C219.157 11.9726 222.166 15.4174 224.473 19.4086C226.787 23.4102 228.222 27.7992 228.783 32.565L228.914 33.6818H204.251ZM214.835 9.86364C211.259 7.04546 207.138 4.86364 202.471 3.31818C197.835 1.77273 192.82 1 187.426 1C181.214 1 175.411 2.06061 170.017 4.18182C164.653 6.30303 159.926 9.42424 155.835 13.5455C151.774 17.6667 148.608 22.697 146.335 28.6364C144.062 34.5455 142.926 41.3182 142.926 48.9546C142.926 58.7727 144.805 67.2576 148.562 74.4091C152.32 81.5303 157.562 87.0152 164.289 90.8636C171.017 94.7121 178.82 96.6364 187.699 96.6364C195.699 96.6364 202.774 95.0455 208.926 91.8636C215.108 88.6818 219.956 84.1212 223.471 78.1818C227.017 72.2424 228.789 65.1061 228.789 56.7727V44.4546H188.653V60.8636H207.102C207.098 61.0329 207.093 61.2011 207.085 61.3681C207.077 61.5344 207.068 61.6996 207.056 61.8636C206.865 64.6041 206.14 67.0284 204.88 69.1364C203.395 71.6212 201.214 73.5455 198.335 74.9091C195.486 76.2424 192.002 76.9091 187.88 76.9091C183.214 76.9091 179.244 75.803 175.971 73.5909C172.699 71.3788 170.199 68.1667 168.471 63.9546C166.744 59.7424 165.88 54.6515 165.88 48.6818C165.88 42.7424 166.774 37.697 168.562 33.5455C170.35 29.3636 172.88 26.1818 176.153 24C179.456 21.8182 183.365 20.7273 187.88 20.7273C190.123 20.7273 192.183 21 194.062 21.5455C195.941 22.0606 197.608 22.8333 199.062 23.8636C200.517 24.8939 201.744 26.1515 202.744 27.6364C203.744 29.0909 204.502 30.7727 205.017 32.6818H227.789C227.75 32.3465 227.706 32.0132 227.658 31.6818C227.038 27.4316 225.688 23.5074 223.608 19.9091C221.365 16.0303 218.441 12.6818 214.835 9.86364Z" fill="#4C7AC2"/>
<path fill-rule="evenodd" clip-rule="evenodd" d="M123.4 2.27344H100.9V95.3643H123.4V2.27344ZM124.4 1.27344V96.3643H99.9004V1.27344H124.4Z" fill="#4C7AC2"/>
<path fill-rule="evenodd" clip-rule="evenodd" d="M35.4091 95.3643C44.8636 95.3643 53.0303 93.5159 59.9091 89.8189C66.7879 86.0916 72.0758 80.7431 75.7727 73.7734C79.5 66.8037 81.3636 58.4704 81.3636 48.7734C81.3636 39.1068 79.5 30.8037 75.7727 23.8643C72.0455 16.8946 66.7424 11.5613 59.8636 7.86435C53.0152 4.13707 44.8485 2.27344 35.3636 2.27344H1V95.3643H35.4091ZM60.3397 6.98493C53.3164 3.163 44.9787 1.27344 35.3636 1.27344H0V96.3643H35.4091C44.9943 96.3643 53.3305 94.4898 60.3825 90.6997L60.3855 90.6981C67.4386 86.8764 72.8672 81.3847 76.6556 74.2431C80.4754 67.0994 82.3636 58.5972 82.3636 48.7734C82.3636 38.9787 80.4749 30.5055 76.6537 23.3912C72.8353 16.2517 67.3924 10.776 60.3397 6.98493ZM34.5455 76.1825H23.5V21.4553H34.2273C39.5606 21.4553 44.0455 22.3492 47.6818 24.1371C51.3485 25.8946 54.1212 28.7734 56 32.7734C57.8788 36.7431 58.8182 42.0765 58.8182 48.7734C58.8182 55.4704 57.8788 60.834 56 64.8643C54.1515 68.8643 51.4091 71.7583 47.7727 73.5462C44.1667 75.3037 39.7576 76.1825 34.5455 76.1825ZM24.5 22.4553H34.2273C39.454 22.4553 43.7778 23.332 47.2406 25.0345L47.2496 25.0388C50.6899 26.6879 53.305 29.3878 55.0949 33.1986L55.0961 33.2012C56.8872 36.9855 57.8182 42.154 57.8182 48.7734C57.8182 55.3916 56.8876 60.5936 55.0936 64.4418L55.0922 64.4449C53.331 68.256 50.7441 70.9707 47.3322 72.6484C43.8976 74.3219 39.6483 75.1825 34.5455 75.1825H24.5V22.4553Z" fill="#4C7AC2"/>
<path d="M1845.45 7.43489L1850.99 41.0901C1851.1 41.7246 1851.59 42.2219 1852.23 42.3264L1885.88 47.8699C1886.44 47.9619 1886.44 48.7647 1885.88 48.8566L1852.23 54.4002C1851.59 54.5047 1851.1 55.002 1850.99 55.6364L1845.45 89.2917C1845.36 89.85 1844.55 89.85 1844.46 89.2917L1838.92 55.6364C1838.81 55.002 1838.32 54.5047 1837.68 54.4002L1804.03 48.8566C1803.47 48.7647 1803.47 47.9619 1804.03 47.8699L1837.68 42.3264C1838.32 42.2219 1838.81 41.7246 1838.92 41.0901L1844.46 7.43489C1844.55 6.87658 1845.36 6.87657 1845.45 7.43489Z" stroke="#4C7AC2"/>
</svg>
