<svg width="164" height="55" viewBox="0 0 164 55" fill="none" xmlns="http://www.w3.org/2000/svg">
<path d="M58.6289 38.8381V24.7695H64.3577C65.3348 24.7695 66.1821 24.879 66.8997 25.102C67.6133 25.3209 68.2134 25.6372 68.6877 26.0466C69.1621 26.4561 69.5148 26.9589 69.7459 27.5549C69.9729 28.1508 70.0865 28.8239 70.0865 29.5739C70.0865 30.324 69.9729 30.997 69.7459 31.593C69.5189 32.189 69.1661 32.6917 68.6877 33.1012C68.2093 33.5107 67.6174 33.8229 66.8997 34.0458C66.1821 34.2648 65.3348 34.3783 64.3577 34.3783H62.2454V38.8381H58.6289ZM62.2454 31.4024H63.9522C64.8766 31.4024 65.5253 31.2484 65.9024 30.9402C66.2754 30.6321 66.4659 30.178 66.4659 29.5739C66.4659 28.9698 66.2794 28.5157 65.9024 28.2076C65.5253 27.8995 64.8766 27.7454 63.9522 27.7454H62.2454V31.4024Z" fill="black"/>
<path d="M76.5087 39.0994C75.7586 39.0994 75.0572 38.9899 74.3964 38.7669C73.7396 38.548 73.1639 38.2074 72.6692 37.7533C72.1746 37.2993 71.7854 36.7235 71.5056 36.0343C71.2259 35.3451 71.084 34.5382 71.084 33.6139V33.2125C71.084 32.3408 71.2259 31.5786 71.5056 30.9218C71.7854 30.265 72.1746 29.7177 72.6692 29.2757C73.1639 28.8338 73.7396 28.4973 74.3964 28.2702C75.0532 28.0432 75.7586 27.9297 76.5087 27.9297C77.2587 27.9297 77.9642 28.0432 78.621 28.2702C79.2778 28.4973 79.8535 28.8338 80.3481 29.2757C80.8468 29.7177 81.232 30.265 81.5158 30.9218C81.7955 31.5786 81.9374 32.3408 81.9374 33.2125V33.6139C81.9374 34.5261 81.7955 35.3248 81.5158 36.014C81.236 36.7033 80.8468 37.279 80.3481 37.7331C79.8535 38.1871 79.2778 38.5318 78.621 38.7588C77.9642 38.9859 77.2628 39.0994 76.5087 39.0994ZM76.5087 36.5289C76.8695 36.5289 77.1939 36.4641 77.4736 36.3262C77.7534 36.1924 77.9885 35.9978 78.1791 35.7424C78.3656 35.487 78.5115 35.1788 78.6129 34.818C78.7142 34.4572 78.7629 34.0558 78.7629 33.6139V33.2125C78.7629 32.8111 78.7142 32.4422 78.6129 32.1056C78.5115 31.7691 78.3696 31.4853 78.1791 31.2502C77.9885 31.015 77.7574 30.8326 77.4736 30.6988C77.1939 30.565 76.8695 30.4961 76.5087 30.4961C76.1478 30.4961 75.8276 30.565 75.5438 30.6988C75.264 30.8326 75.0248 31.0191 74.8383 31.2502C74.6518 31.4853 74.5058 31.7691 74.4045 32.1056C74.3031 32.4422 74.2504 32.8111 74.2504 33.2125V33.6139C74.2504 34.0679 74.3031 34.4774 74.4045 34.8383C74.5018 35.1991 74.6477 35.5072 74.8383 35.7627C75.0248 36.0181 75.2599 36.2086 75.5438 36.3343C75.8276 36.4641 76.1478 36.5289 76.5087 36.5289Z" fill="black"/>
<path d="M88.5655 39.0956C87.7749 39.0956 87.0491 38.9821 86.3842 38.7551C85.7193 38.528 85.1477 38.1874 84.6652 37.7293C84.1827 37.2752 83.8057 36.7036 83.5381 36.0224C83.2705 35.3413 83.1367 34.5345 83.1367 33.6101V33.2087C83.1367 32.3654 83.2827 31.6154 83.5705 30.9586C83.8584 30.3018 84.2476 29.7504 84.7341 29.3003C85.2247 28.8503 85.8004 28.5098 86.4653 28.2746C87.1262 28.0394 87.8276 27.9219 88.5655 27.9219C89.3682 27.9219 90.0777 28.0273 90.6859 28.2422C91.2981 28.4571 91.8089 28.749 92.2225 29.1179C92.6401 29.4869 92.9604 29.9207 93.1874 30.4153C93.4144 30.9099 93.5482 31.441 93.5888 32.0046H90.4142C90.3088 31.5221 90.1102 31.1491 89.8223 30.8896C89.5345 30.6302 89.1169 30.4964 88.5655 30.4964C88.2452 30.4964 87.9492 30.5531 87.6735 30.6667C87.3978 30.7802 87.1586 30.9464 86.96 31.1694C86.7613 31.3924 86.6032 31.6721 86.4897 32.0127C86.3761 32.3533 86.3153 32.7546 86.3153 33.2087V33.6101C86.3153 34.1047 86.368 34.5345 86.4775 34.8953C86.5829 35.2562 86.737 35.5562 86.9275 35.7994C87.1221 36.0427 87.3613 36.217 87.6411 36.3306C87.9208 36.4441 88.229 36.5008 88.5655 36.5008C89.0358 36.5008 89.4331 36.3752 89.7615 36.1279C90.0899 35.8805 90.3048 35.5075 90.4142 35.0129H93.5888C93.5482 35.6413 93.4023 36.2089 93.1469 36.7117C92.8914 37.2144 92.5468 37.6442 92.109 37.9969C91.6751 38.3537 91.1562 38.6253 90.5602 38.8118C89.9723 39.0024 89.3034 39.0956 88.5655 39.0956Z" fill="black"/>
<path d="M95.1016 42.854V28.1814H97.9558V29.6287C98.2234 29.199 98.6369 28.8098 99.2005 28.453C99.764 28.0962 100.453 27.9219 101.272 27.9219C102.772 27.9219 103.912 28.3638 104.69 29.2477C105.468 30.1315 105.854 31.4532 105.854 33.2087V33.6101C105.854 34.5102 105.748 35.3008 105.533 35.99C105.318 36.6792 105.01 37.2509 104.609 37.709C104.208 38.1631 103.725 38.5118 103.162 38.7429C102.598 38.978 101.97 39.0956 101.272 39.0956C100.668 39.0956 100.096 38.9578 99.5532 38.6821C99.0099 38.4064 98.5599 38.0091 98.195 37.486V42.854H95.1016ZM100.53 36.5414C100.838 36.5414 101.122 36.4765 101.386 36.3508C101.649 36.2252 101.872 36.0386 102.071 35.7994C102.262 35.5562 102.416 35.2521 102.521 34.8832C102.626 34.5142 102.683 34.0885 102.683 33.6061V33.2047C102.683 32.7344 102.635 32.3289 102.533 31.9884C102.432 31.6478 102.286 31.364 102.091 31.1451C101.897 30.9221 101.67 30.7559 101.406 30.6423C101.143 30.5288 100.855 30.4721 100.53 30.4721C100.206 30.4721 99.9059 30.5207 99.614 30.6221C99.3262 30.7234 99.0789 30.8775 98.8721 31.0843C98.6653 31.291 98.4991 31.5464 98.3775 31.8465C98.2599 32.1465 98.1991 32.4992 98.1991 32.9006V33.9061C98.1991 34.3196 98.2599 34.6926 98.3775 35.021C98.4991 35.3494 98.6613 35.6292 98.8721 35.8562C99.0789 36.0833 99.3262 36.2535 99.614 36.3671C99.9059 36.4887 100.206 36.5414 100.53 36.5414Z" fill="black"/>
<path d="M112.585 39.0956C111.806 39.0956 111.081 38.9862 110.404 38.7632C109.726 38.5442 109.143 38.2037 108.644 37.7496C108.149 37.2955 107.76 36.7198 107.476 36.0305C107.197 35.3413 107.055 34.5345 107.055 33.6101V33.2087C107.055 32.3249 107.193 31.5546 107.464 30.8978C107.74 30.241 108.113 29.6936 108.591 29.2476C109.066 28.8057 109.629 28.4733 110.278 28.2543C110.927 28.0354 111.628 27.9219 112.378 27.9219C114.146 27.9219 115.476 28.3719 116.367 29.2679C117.259 30.1639 117.705 31.4775 117.705 33.2087V34.3156H110.229C110.241 34.7332 110.318 35.0818 110.452 35.3697C110.586 35.6575 110.76 35.8967 110.975 36.0832C111.19 36.2697 111.437 36.4076 111.717 36.4968C111.997 36.586 112.289 36.6265 112.585 36.6265C113.189 36.6265 113.655 36.5373 113.992 36.3549C114.324 36.1725 114.547 35.9292 114.653 35.6211H117.507C117.401 36.1968 117.215 36.7036 116.943 37.1374C116.676 37.5712 116.335 37.9361 115.917 38.232C115.5 38.528 115.013 38.7429 114.45 38.8848C113.886 39.0267 113.266 39.0956 112.585 39.0956ZM110.254 32.2843H114.673C114.673 31.9113 114.616 31.6032 114.502 31.36C114.389 31.1167 114.231 30.9261 114.032 30.7761C113.829 30.6302 113.594 30.5248 113.327 30.4639C113.059 30.4031 112.775 30.3748 112.483 30.3748C112.204 30.3748 111.932 30.4072 111.669 30.4761C111.405 30.545 111.174 30.6545 110.963 30.8086C110.756 30.9626 110.59 31.1613 110.46 31.4005C110.335 31.6397 110.266 31.9357 110.254 32.2843Z" fill="black"/>
<path d="M124.438 39.0956C123.66 39.0956 122.934 38.9862 122.257 38.7632C121.58 38.5442 120.992 38.2037 120.497 37.7496C120.003 37.2955 119.614 36.7198 119.334 36.0305C119.054 35.3413 118.912 34.5345 118.912 33.6101V33.2087C118.912 32.3249 119.05 31.5546 119.326 30.8978C119.597 30.241 119.974 29.6936 120.453 29.2476C120.927 28.8057 121.491 28.4733 122.139 28.2543C122.788 28.0354 123.489 27.9219 124.24 27.9219C126.007 27.9219 127.337 28.3719 128.229 29.2679C129.117 30.1639 129.563 31.4775 129.563 33.2087V34.3156H122.087C122.099 34.7332 122.176 35.0818 122.31 35.3697C122.443 35.6575 122.618 35.8967 122.833 36.0832C123.048 36.2697 123.295 36.4076 123.575 36.4968C123.854 36.586 124.142 36.6265 124.438 36.6265C125.042 36.6265 125.509 36.5373 125.845 36.3549C126.182 36.1725 126.4 35.9292 126.51 35.6211H129.364C129.259 36.1968 129.068 36.7036 128.801 37.1374C128.533 37.5712 128.188 37.9361 127.775 38.232C127.357 38.528 126.871 38.7429 126.307 38.8848C125.744 39.0267 125.123 39.0956 124.438 39.0956ZM122.107 32.2843H126.526C126.526 31.9113 126.469 31.6032 126.356 31.36C126.242 31.1167 126.084 30.9261 125.882 30.7761C125.683 30.6302 125.444 30.5248 125.176 30.4639C124.908 30.4031 124.629 30.3748 124.333 30.3748C124.053 30.3748 123.781 30.4072 123.522 30.4761C123.258 30.541 123.023 30.6545 122.816 30.8086C122.61 30.9626 122.439 31.1613 122.314 31.4005C122.192 31.6397 122.119 31.9357 122.107 32.2843Z" fill="black"/>
<path d="M136.204 39.0956C135.414 39.0956 134.688 38.9821 134.023 38.7551C133.362 38.528 132.79 38.1874 132.304 37.7293C131.821 37.2752 131.448 36.7036 131.177 36.0224C130.909 35.3413 130.775 34.5345 130.775 33.6101V33.2087C130.775 32.3654 130.917 31.6154 131.209 30.9586C131.497 30.3018 131.886 29.7504 132.373 29.3003C132.863 28.8503 133.435 28.5098 134.1 28.2746C134.765 28.0394 135.462 27.9219 136.2 27.9219C137.003 27.9219 137.708 28.0273 138.32 28.2422C138.929 28.4571 139.444 28.749 139.857 29.1179C140.271 29.4869 140.591 29.9207 140.822 30.4153C141.049 30.9099 141.183 31.441 141.223 32.0046H138.049C137.943 31.5221 137.745 31.1491 137.457 30.8896C137.169 30.6302 136.751 30.4964 136.2 30.4964C135.88 30.4964 135.58 30.5531 135.308 30.6667C135.032 30.7802 134.793 30.9464 134.595 31.1694C134.396 31.3924 134.238 31.6721 134.124 32.0127C134.011 32.3533 133.954 32.7546 133.954 33.2087V33.6101C133.954 34.1047 134.007 34.5345 134.116 34.8953C134.222 35.2562 134.376 35.5562 134.566 35.7994C134.761 36.0427 135 36.217 135.28 36.3306C135.559 36.4441 135.872 36.5008 136.204 36.5008C136.67 36.5008 137.072 36.3752 137.4 36.1279C137.729 35.8805 137.947 35.5075 138.053 35.0129H141.227C141.187 35.6413 141.041 36.2089 140.786 36.7117C140.53 37.2144 140.185 37.6442 139.752 37.9969C139.314 38.3537 138.799 38.6253 138.203 38.8118C137.607 39.0024 136.942 39.0956 136.204 39.0956Z" fill="black"/>
<path d="M145.405 38.8384V30.7176H142.129V28.1836H151.774V30.7176H148.498V38.8384H145.405Z" fill="black"/>
<path d="M153.18 42.854V28.1814H156.034V29.6287C156.302 29.199 156.715 28.8098 157.279 28.453C157.842 28.0962 158.531 27.9219 159.35 27.9219C160.85 27.9219 161.99 28.3638 162.768 29.2477C163.547 30.1315 163.932 31.4532 163.932 33.2087V33.6101C163.932 34.5102 163.826 35.3008 163.611 35.99C163.397 36.6792 163.088 37.2509 162.687 37.709C162.286 38.1631 161.803 38.5118 161.24 38.7429C160.676 38.978 160.048 39.0956 159.35 39.0956C158.746 39.0956 158.175 38.9578 157.631 38.6821C157.088 38.4064 156.638 38.0091 156.273 37.486V42.854H153.18ZM158.608 36.5414C158.917 36.5414 159.2 36.4765 159.464 36.3508C159.727 36.2252 159.95 36.0386 160.149 35.7994C160.34 35.5562 160.494 35.2521 160.599 34.8832C160.705 34.5142 160.761 34.0885 160.761 33.6061V33.2047C160.761 32.7344 160.713 32.3289 160.611 31.9884C160.51 31.6478 160.364 31.364 160.169 31.1451C159.975 30.9221 159.748 30.7559 159.484 30.6423C159.221 30.5288 158.933 30.4721 158.608 30.4721C158.284 30.4721 157.984 30.5207 157.692 30.6221C157.404 30.7234 157.157 30.8775 156.95 31.0843C156.743 31.291 156.577 31.5464 156.456 31.8465C156.338 32.1465 156.277 32.4992 156.277 32.9006V33.9061C156.277 34.3196 156.338 34.6926 156.456 35.021C156.577 35.3494 156.739 35.6292 156.95 35.8562C157.157 36.0833 157.404 36.2535 157.692 36.3671C157.98 36.4887 158.284 36.5414 158.608 36.5414Z" fill="black"/>
<path d="M34.1016 17.6485C34.7949 17.4336 36.0071 17.4174 36.8463 18.1553C36.8463 17.3647 36.1652 16.6673 35.926 16.5781C35.6138 16.6308 34.5556 17.089 34.1016 17.6485Z" fill="black"/>
<path d="M40.71 8.31951C40.6208 8.03976 43.4629 8.03165 43.4629 9.8115C43.4629 11.0035 41.7642 11.567 41.7642 12.8036C41.7642 13.3793 42.3845 13.801 42.575 13.801C42.1372 11.8143 43.9454 12.8523 44.436 13.2253C43.4629 10.5535 45.6523 10.5737 45.4374 9.34526C45.2874 8.48979 43.3859 8.74927 42.7007 8.31545C41.4804 7.54919 40.037 4.55709 39.0842 7.54919C40.86 9.19525 39.8262 11.6197 37.572 11.6197C37.572 11.6197 37.5598 11.9765 37.5801 12.0049C40.2681 11.8752 41.2006 9.9007 40.71 8.31951Z" fill="black"/>
<path d="M9.37186 13.2253C9.86243 12.8563 11.6707 11.8143 11.2328 13.801C11.4234 13.801 12.0396 13.3793 12.0396 12.8036C12.0396 11.567 10.3408 10.9994 10.3408 9.8115C10.3408 8.03165 13.1829 8.03976 13.0937 8.31951C12.6032 9.9007 13.5397 11.8752 16.2277 12.0049C16.248 11.9765 16.2358 11.6197 16.2358 11.6197C13.9857 11.6197 12.9518 9.19525 14.7236 7.54919C13.7708 4.55709 12.3275 7.54919 11.1071 8.31545C10.4179 8.74927 8.51639 8.48979 8.37044 9.34526C8.15556 10.5697 10.3408 10.5535 9.37186 13.2253Z" fill="black"/>
<path d="M17 18.1553C17.8433 17.4174 19.0515 17.4336 19.7448 17.6485C19.2907 17.089 18.2285 16.6308 17.9203 16.5781C17.6811 16.6633 17 17.3647 17 18.1553Z" fill="black"/>
<path d="M28.2148 1.59741L26.9053 0L25.5957 1.59741L26.9053 3.27996L28.2148 1.59741Z" fill="black"/>
<path d="M35.7029 6.43209L34.7704 5.29688L33.8379 6.43209L34.7704 7.54298L35.7029 6.43209Z" fill="black"/>
<path d="M19.9802 6.43209L19.0518 5.29688L18.1152 6.43209L19.0518 7.54298L19.9802 6.43209Z" fill="black"/>
<path d="M19.2042 42.4582C19.7353 42.2596 20.1894 41.9068 20.5097 41.4406H20.5137C20.2988 41.3473 20.0312 40.8243 20.0677 40.1067C19.6258 40.3094 19.0582 40.2405 18.7703 40.0216C18.2271 39.4823 18.8758 38.8134 19.0177 38.3553C17.8946 37.6174 18.1784 37.0862 18.5676 36.693C18.8636 36.4497 19.2001 36.2673 19.565 36.1578C19.9299 36.0443 20.311 36.0078 20.6921 36.0443L20.8016 36.0524C20.7529 35.7443 20.7245 35.4361 20.7245 35.1158V34.7226L20.6921 34.7145C19.4069 34.3171 18.1379 34.4266 17.1486 35.428C16.0377 36.5511 15.7701 37.4592 14.3633 38.0066C14.9066 38.9269 17.1527 38.0593 17.9635 38.035C17.8946 39.4378 16.0985 40.1513 15.539 40.5081C16.0823 41.0473 17.5905 40.6743 18.4541 40.4513C18.4298 40.9784 18.523 41.246 17.55 42.5393C18.0973 42.6812 18.6771 42.6528 19.2042 42.4582Z" fill="black"/>
<path d="M36.6485 35.428C35.6592 34.4266 34.3902 34.3171 33.105 34.7145L33.0887 34.7185V35.1158C33.0887 35.4321 33.0563 35.7443 33.0117 36.0483H33.105C33.4861 36.0118 33.8672 36.0524 34.2321 36.1619C34.597 36.2754 34.9335 36.4538 35.2294 36.697C35.6187 37.0862 35.9025 37.6214 34.7794 38.3593C34.9213 38.8174 35.5659 39.4864 35.0267 40.0256C34.7389 40.2446 34.1713 40.3135 33.7293 40.1108C33.7658 40.8284 33.4982 41.3514 33.2834 41.4446H33.2874C33.6077 41.9109 34.0658 42.2636 34.597 42.4623C35.1281 42.6569 35.7038 42.6893 36.2511 42.5434C35.2781 41.25 35.3713 40.9825 35.347 40.4595C36.2146 40.6824 37.7188 41.0554 38.2621 40.5162C37.7026 40.1594 35.9025 39.4459 35.8376 38.039C36.6485 38.0633 38.8986 38.931 39.4378 38.0106C38.0269 37.4592 37.7593 36.547 36.6485 35.428Z" fill="black"/>
<path d="M37.6974 15.9654C38.6583 16.1114 38.9624 16.7601 39.0191 16.9587C39.3435 16.683 39.6475 15.7303 39.53 15.1019C38.9745 12.1422 32.0984 14.1045 28.636 12.8477C28.5711 13.7112 29.7023 15.0938 30.7848 15.6046C28.9319 17.2142 27.2697 20.4495 26.9332 24.4066C26.6007 20.4495 24.9344 17.2101 23.0856 15.6046C24.1681 15.0938 25.3033 13.7112 25.2344 12.8477C21.772 14.1045 14.8918 12.1422 14.3363 15.1019C14.2188 15.7303 14.5228 16.683 14.8472 16.9587C14.908 16.7601 15.2121 16.1114 16.1689 15.9654C21.0138 15.2316 25.0601 22.7037 21.4071 25.7202C21.3503 25.7688 21.3828 25.8499 21.4598 25.8499H32.4106C32.4835 25.8499 32.516 25.7648 32.4592 25.7202C28.8063 22.7037 32.8525 15.2357 37.6974 15.9654Z" fill="black"/>
<path d="M17.3095 11.9924H20.7841C23.7072 11.9924 25.0208 10.2004 25.4182 8.64352H28.39C28.7873 10.2004 30.1009 11.9924 33.0241 11.9924H36.4987C36.4987 11.9924 37.1068 11.1694 37.2568 10.7599C37.8042 9.28816 37.1068 8.60298 36.0811 8.60298L34.7593 9.80306L33.4376 8.60298C32.4119 8.60298 31.7145 9.28816 32.2619 10.7599C32.3308 10.9464 32.5011 11.2221 32.6592 11.4653C31.4267 11.2951 29.8536 10.4518 29.5049 8.64352C29.5049 8.64352 30.4172 7.19613 30.6442 6.61231C31.4672 4.50405 30.4172 3.64453 28.8806 3.64453L26.898 5.97577L24.9154 3.64453C23.3829 3.64453 22.3328 4.50811 23.1558 6.61231C23.3829 7.20018 24.2951 8.64352 24.2951 8.64352C23.9505 10.4518 22.3734 11.2951 21.1408 11.4653C21.299 11.2221 21.4692 10.9464 21.5382 10.7558C22.0855 9.28411 21.3882 8.60298 20.3624 8.60298L19.0407 9.80306L17.719 8.60298C16.6932 8.60298 15.9959 9.28816 16.5432 10.7599C16.7014 11.1694 17.3095 11.9924 17.3095 11.9924Z" fill="black"/>
<path d="M53.2447 22.7701C52.5717 23.1107 48.639 24.9514 43.5954 24.2702C43.6481 24.031 43.6927 23.7878 43.7292 23.5445C47.0862 23.1431 49.8107 22.5755 51.55 21.6065C53.5326 20.5037 54.3961 17.8684 53.3988 15.9143C53.3744 15.8656 53.3015 15.8575 53.265 15.898C52.7176 16.5265 49.2715 20.2767 43.8427 21.4403C43.8305 21.1606 43.8022 20.8768 43.7657 20.6011C46.401 19.105 48.9755 17.3819 50.204 15.8048C52.0568 13.4249 51.8865 10.3841 50.1229 8.83538C50.0864 8.807 50.0337 8.81106 50.0053 8.8435C50.0012 8.84755 50.0012 8.84755 49.9972 8.8516C49.4377 9.77194 44.2157 18.2131 38.4829 21.8579C38.414 21.9025 38.341 21.9471 38.2721 21.9876C38.1099 22.089 38.0896 22.2998 38.2275 22.4255C38.8883 23.0256 39.2978 23.8567 39.2978 24.7851C39.2978 26.3947 38.0572 27.7326 36.4192 28.0245C35.584 28.1867 34.3839 28.1381 33.2285 27.757C33.1758 27.7407 33.123 27.7732 33.123 27.8259V32.9222C33.123 33.0033 33.2487 33.0235 33.2771 32.9465C33.9785 31.0856 36.0827 30.6882 37.003 30.6882C37.3314 32.6789 37.9234 34.325 38.6937 35.2088C39.9465 36.6481 41.9858 36.6278 42.8737 35.6345C42.898 35.6021 42.898 35.5575 42.8656 35.5332C42.8616 35.5291 42.8575 35.5251 42.8534 35.5251C42.3345 35.225 39.3586 33.4006 38.7626 30.4044C38.9978 30.3233 39.2248 30.2301 39.4478 30.1247C40.4087 31.714 41.8074 33.1289 42.9305 33.6722C44.8198 34.5804 46.551 34.1385 47.3213 32.8087C47.3497 32.76 47.3132 32.7032 47.2565 32.6992C46.0888 32.6059 42.4967 31.5761 40.9682 29.0706C41.1466 28.9084 41.3128 28.7422 41.475 28.5638C43.0764 29.7841 45.3347 30.8585 46.9564 31.0775C48.8498 31.3329 50.9986 30.7288 51.0473 28.5273C51.0473 28.4827 51.0067 28.4462 50.9621 28.4502C50.2891 28.4908 45.8293 28.6854 42.6548 26.861C42.7643 26.6501 42.8697 26.4393 42.9629 26.2204C42.9629 26.2204 47.7632 27.3556 50.0377 26.9785C52.3 26.6055 53.6218 24.923 53.3663 22.8228C53.3542 22.7742 53.2934 22.7458 53.2447 22.7701Z" fill="black"/>
<path d="M16.8074 30.6947C17.7278 30.6947 19.8279 31.0879 20.5334 32.9529C20.5658 33.03 20.6874 33.0097 20.6874 32.9286V27.8323C20.6874 27.7796 20.6347 27.7472 20.582 27.7634C19.4265 28.1445 18.2224 28.1931 17.3913 28.031C15.7533 27.7391 14.5086 26.4011 14.5086 24.7956C14.5086 23.8672 14.9222 23.036 15.579 22.436C15.7209 22.3103 15.7006 22.0954 15.5384 21.9981C15.4654 21.9535 15.3965 21.913 15.3235 21.8684C9.59477 18.2276 4.37684 9.79458 3.81329 8.86613C3.78897 8.82559 3.73626 8.81748 3.69572 8.84181C3.69166 8.84586 3.68761 8.84586 3.68761 8.84991C1.92803 10.3987 1.75775 13.4354 3.61058 15.8193C4.83498 17.3924 7.40949 19.1155 10.0448 20.6115C10.0083 20.8913 9.98399 21.171 9.96777 21.4508C4.54307 20.2791 1.10094 16.5369 0.549555 15.9004C0.513066 15.8558 0.440087 15.8639 0.415761 15.9166C-0.581604 17.8749 0.286023 20.5061 2.26454 21.6089C4.00385 22.5738 6.73241 23.1455 10.0853 23.5469C10.1218 23.7901 10.1664 24.0334 10.2191 24.2726C5.18366 24.9537 1.25095 23.1131 0.57388 22.7725C0.525228 22.7482 0.464414 22.7806 0.456305 22.8333C0.200882 24.9294 1.52259 26.612 3.78491 26.985C6.05939 27.362 10.8557 26.2268 10.8597 26.2268C10.957 26.4417 11.0584 26.6565 11.1679 26.8674C7.99331 28.6878 3.5376 28.4972 2.86052 28.4567C2.81187 28.4526 2.77538 28.4932 2.77538 28.5337C2.82809 30.7352 4.97283 31.3393 6.8662 31.0839C8.48388 30.865 10.7462 29.7865 12.3477 28.5702C12.5098 28.7486 12.6761 28.9148 12.8545 29.077C11.326 31.5826 7.73789 32.6124 6.56618 32.7056C6.50942 32.7137 6.47699 32.7705 6.50537 32.8191C7.27164 34.1449 9.00284 34.5868 10.8962 33.6827C12.0193 33.1394 13.418 31.7245 14.3789 30.1352C14.6019 30.2446 14.8289 30.3379 15.0641 30.4149C14.4681 33.4111 11.4922 35.2355 10.9732 35.5355C10.9408 35.5558 10.9246 35.6004 10.9449 35.6329C10.9489 35.6369 10.9489 35.641 10.953 35.645C11.8409 36.6383 13.8802 36.6626 15.133 35.2193C15.8871 34.3314 16.479 32.6853 16.8074 30.6947Z" fill="black"/>
<path d="M28.427 43.5252C29.0311 41.8589 29.7933 40.1358 31.0988 40.1358C31.7434 40.1358 32.311 40.748 32.7246 40.8129C32.8138 40.8331 32.903 40.825 32.984 40.7885C33.0692 40.7561 33.1381 40.6953 33.1827 40.6183C33.3287 40.3709 33.2638 39.9169 33.2638 39.6006C33.73 39.6249 34.0909 39.7141 34.395 39.6006C34.476 39.5722 34.545 39.5114 34.5936 39.4384C34.6382 39.3614 34.6544 39.2722 34.6382 39.1871C34.5896 38.8627 34.0909 38.433 33.9328 38.1451C34.1355 37.9748 34.695 37.8735 34.8126 37.6343C34.849 37.5532 34.8612 37.464 34.845 37.3788C34.8247 37.2937 34.7801 37.2167 34.7112 37.1599C34.2531 36.8396 33.6936 36.6977 33.1381 36.7504H33.1178L32.8665 36.7464C32.1448 39.3574 29.7487 41.2832 26.9107 41.2832C24.0726 41.2832 21.6806 39.3574 20.9548 36.7464H20.6873H20.667C20.1115 36.6896 19.552 36.8356 19.0939 37.1559C19.025 37.2126 18.9763 37.2897 18.9601 37.3748C18.9398 37.4599 18.952 37.5491 18.9885 37.6302C19.1061 37.8694 19.6656 37.9667 19.8683 38.1411C19.7102 38.4289 19.2115 38.8587 19.1628 39.183C19.1466 39.2682 19.1669 39.3574 19.2074 39.4344C19.252 39.5074 19.3209 39.5682 19.4061 39.5966C19.7102 39.7101 20.0669 39.6209 20.5372 39.5966C20.5372 39.9088 20.4724 40.3669 20.6183 40.6142C20.667 40.6912 20.7359 40.748 20.817 40.7845C20.8981 40.821 20.9913 40.8291 21.0765 40.8088C21.49 40.7439 22.0576 40.1317 22.7023 40.1317C24.0078 40.1317 24.77 41.8508 25.3741 43.5212C22.3941 44.2145 18.6844 46.2092 17.9425 48.3823C17.6708 49.2175 18.5912 50.3243 19.7548 50.5595C19.7629 50.5595 19.7669 50.5554 19.775 50.5554C19.7791 50.5554 19.7791 50.5554 19.7791 50.5595C19.8237 50.5595 19.8723 50.5595 19.8723 50.5149C20.4724 47.3282 23.9348 44.928 25.7511 44.5023C25.8403 44.7253 25.7957 44.6848 25.8849 44.9118C23.9348 45.8402 22.0292 47.7863 21.4697 50.1013C21.2386 51.1636 22.4022 52.1366 23.3672 52.3718C23.3753 52.3718 23.3793 52.3718 23.3874 52.3677C23.3915 52.3677 23.3915 52.3677 23.3915 52.3718C23.4361 52.3718 23.4847 52.3718 23.4847 52.3272C23.6712 49.4283 24.9565 46.943 26.1119 45.7754C26.1525 45.9984 26.1565 46.2213 26.2011 46.3957C26.2011 46.3957 24.993 49.7324 24.993 52.1407C24.993 53.2516 26.6674 54.03 26.8904 54.18C26.8944 54.176 26.8985 54.1759 26.9066 54.1719C26.9107 54.1719 26.9147 54.176 26.9188 54.18C27.1418 54.0341 28.8162 53.2556 28.8162 52.1407C28.8162 49.7324 27.608 46.3957 27.608 46.3957C27.6526 46.2213 27.6567 45.9984 27.6972 45.7754C28.8527 46.943 30.1379 49.4283 30.3203 52.3272C30.3203 52.3718 30.3649 52.3718 30.4136 52.3718C30.4177 52.3718 30.4177 52.3718 30.4177 52.3677C30.4258 52.3677 30.4339 52.3718 30.4379 52.3718C31.4029 52.1407 32.5624 51.1676 32.3354 50.1013C31.7799 47.7863 29.8703 45.8402 27.9202 44.9118C28.0094 44.6848 27.9688 44.7253 28.054 44.5023C29.8703 44.9321 33.3327 47.3322 33.9328 50.5149C33.9328 50.5595 33.9774 50.5595 34.026 50.5595C34.0301 50.5595 34.0301 50.5595 34.0301 50.5554C34.0382 50.5554 34.0422 50.5595 34.0503 50.5595C35.2099 50.3284 36.1343 49.2175 35.8626 48.3823C35.1166 46.2132 31.4069 44.2226 28.427 43.5252Z" fill="black"/>
<path d="M24.7441 36.3491L24.7488 36.3398L24.7441 36.3491Z" fill="black"/>
<path fill-rule="evenodd" clip-rule="evenodd" d="M32.3482 26.4883H21.4339C21.3123 26.4883 21.2109 26.5896 21.2109 26.7113V35.0754C21.2109 38.2134 23.753 40.7555 26.8911 40.7555C30.0291 40.7555 32.5712 38.2134 32.5712 35.0754V26.7113C32.5712 26.5896 32.4698 26.4883 32.3482 26.4883Z" fill="black"/>
<path d="M30.5225 30.5098C31.0688 30.5098 31.5117 30.0669 31.5117 29.5205C31.5117 28.9742 31.0688 28.5312 30.5225 28.5312C29.9761 28.5312 29.5332 28.9742 29.5332 29.5205C29.5332 30.0669 29.9761 30.5098 30.5225 30.5098Z" fill="white"/>
<path d="M27.136 35.0658C27.059 34.8995 26.8319 34.8712 26.7144 35.0131L24.4723 37.7132C24.3831 37.8187 24.3993 37.9768 24.5007 38.066L24.5047 38.07C24.6101 38.1592 24.7723 38.143 24.8615 38.0376L27.0995 35.3374C27.1603 35.2644 27.1765 35.159 27.136 35.0698C27.1401 35.0698 27.1401 35.0698 27.136 35.0658Z" fill="white"/>
<path d="M26.5376 34.3861C26.4606 34.2198 26.2335 34.1915 26.116 34.3334L23.8942 37.0133C23.805 37.1187 23.8212 37.2768 23.9226 37.366L23.9266 37.3701C24.032 37.4593 24.1942 37.443 24.2834 37.3376L26.5052 34.6577C26.566 34.5847 26.5822 34.4793 26.5417 34.3901C26.5417 34.3901 26.5417 34.3861 26.5376 34.3861Z" fill="white"/>
<path d="M25.9355 33.7181C25.8584 33.5519 25.6314 33.5235 25.5138 33.6654L23.3082 36.325C23.219 36.4305 23.2353 36.5886 23.3366 36.6778L23.3407 36.6818C23.4461 36.771 23.6083 36.7548 23.6975 36.6494L25.903 33.9938C25.9638 33.9208 25.98 33.8154 25.9395 33.7262C25.9395 33.7222 25.9355 33.7181 25.9355 33.7181Z" fill="white"/>
<path d="M27.4125 31.7985C27.4855 31.9566 27.6923 31.989 27.8099 31.8593L28.3937 31.2065L28.5883 31.3727L27.9639 32.1269C27.895 32.2079 27.8828 32.3296 27.9396 32.4188C27.9396 32.4188 27.9396 32.4228 27.9437 32.4228C28.0288 32.5688 28.2315 32.585 28.341 32.4553L28.9653 31.6971L29.1559 31.8593L28.5275 32.6458C28.4545 32.735 28.4545 32.8647 28.5234 32.9539C28.6207 33.0837 28.8113 33.0877 28.9126 32.962L29.533 32.1877L29.5411 32.1796L29.5735 32.139C29.5816 32.1309 29.5857 32.1187 29.5897 32.1106L29.5938 32.1066L29.9587 30.9916C29.9911 30.8943 29.9627 30.7889 29.8857 30.72L29.3505 30.2578C29.2735 30.1889 29.16 30.1808 29.0708 30.2335L28.1261 30.7768C28.1018 30.7889 28.0815 30.8051 28.0653 30.8254L28.0207 30.8741L27.4571 31.5065C27.3882 31.5836 27.372 31.693 27.4125 31.7903C27.4085 31.7944 27.4085 31.7985 27.4125 31.7985Z" fill="white"/>
<path d="M30.9482 35.7731C30.9401 35.7528 30.9239 35.7325 30.9036 35.7204C30.2022 35.1771 29.5738 34.577 29.1035 34.1189C28.5156 33.5391 27.9602 32.9512 27.4453 32.3715C26.8209 31.6701 26.3222 31.0863 25.8803 30.5349C25.4627 30.0159 24.9194 29.3267 24.4329 28.5928C24.3883 28.5239 24.2991 28.5077 24.2302 28.5523C24.1653 28.5969 24.145 28.6901 24.1896 28.755C24.6843 29.4969 25.2316 30.1943 25.6533 30.7173C26.0992 31.2768 26.602 31.8606 27.2304 32.5661C27.7493 33.1499 28.3129 33.7418 28.9048 34.3257C29.3751 34.7879 30.0076 35.3838 30.709 35.9312C30.7293 35.992 30.6401 36.2961 30.2874 36.6934C29.9346 37.0907 29.6589 37.2488 29.6062 37.2205C29.5535 37.1394 29.6751 36.8556 30.0279 36.4582C30.1373 36.3366 30.4333 36.1136 30.2792 35.9798L30.19 35.9028C30.1779 35.8906 30.1657 35.8785 30.1495 35.8663C29.6143 35.4284 29.1238 34.946 28.6332 34.4635C28.0615 33.8959 27.502 33.3121 26.9669 32.708C26.4276 32.1079 25.9006 31.4957 25.3938 30.8673C24.964 30.3321 24.5383 29.7848 24.145 29.2172C24.0356 29.0591 23.8166 29.0348 23.6747 29.1645L22.9247 29.8659C22.7868 29.9956 22.7949 30.2186 22.9409 30.3443C23.472 30.7862 23.9788 31.2525 24.4734 31.7309C25.0573 32.2863 25.6208 32.8661 26.1722 33.454C26.7276 34.0378 27.2588 34.6459 27.7777 35.2663C28.2075 35.7893 28.9616 36.7988 29.3549 37.3745C29.3549 37.3786 29.3589 37.3786 29.3589 37.3826C29.363 37.3867 29.367 37.3907 29.367 37.3948C29.3832 37.4151 29.3913 37.4272 29.3995 37.4272C29.4116 37.4394 29.4278 37.4475 29.44 37.4556C29.6914 37.6016 30.1455 37.2853 30.4982 36.8839C30.8469 36.4947 31.1063 36.0123 30.9482 35.7731Z" fill="white"/>
</svg>
