<svg width="182" height="27" viewBox="0 0 182 27" fill="none" xmlns="http://www.w3.org/2000/svg">
<path d="M35.7344 5.77344H42.9498C45.4408 5.77344 47.2447 6.25516 48.3614 7.29889C49.564 8.26233 50.0793 9.7075 50.0793 11.3935C50.0793 13.0796 49.4781 14.5247 48.3614 15.4882C47.1588 16.4516 45.3549 17.0136 42.9498 17.0136H40.287V22.2323H35.7344V5.77344ZM42.3485 13.5613C43.4652 13.5613 44.3242 13.4007 44.7537 12.9993C45.1832 12.6781 45.4408 12.1161 45.4408 11.3935C45.4408 10.6709 45.1832 10.1892 44.7537 9.78779C44.3242 9.46664 43.4652 9.22578 42.3485 9.22578H40.2011V13.481H42.3485V13.5613Z" fill="black"/>
<path d="M58.0691 22.5555C57.1243 22.5555 56.2653 22.395 55.4063 22.1541C54.5473 21.9132 53.8601 21.5118 53.2589 20.9498C52.6576 20.3878 52.1422 19.7455 51.7986 18.9426C51.455 18.1397 51.2832 17.1763 51.2832 16.1326V15.6508C51.2832 14.6071 51.455 13.724 51.7986 13.0014C52.1422 12.1985 52.6576 11.5562 53.2589 11.0745C53.8601 10.5928 54.6332 10.1913 55.4063 9.87018C56.2653 9.62932 57.1243 9.46875 58.0691 9.46875C59.014 9.46875 59.873 9.62932 60.732 9.87018C61.591 10.111 62.2781 10.5125 62.8794 11.0745C63.4807 11.5562 63.9961 12.1985 64.3397 13.0014C64.6833 13.8042 64.8551 14.6874 64.8551 15.6508V16.1326C64.8551 17.1763 64.6833 18.1397 64.3397 18.9426C63.9961 19.7455 63.4807 20.3878 62.8794 20.9498C62.2781 21.5118 61.5051 21.9132 60.732 22.1541C59.9589 22.395 59.014 22.5555 58.0691 22.5555ZM58.0691 19.5849C59.014 19.5849 59.7012 19.2638 60.1307 18.7018C60.6461 18.0595 60.8179 17.2566 60.8179 16.2129V15.7311C60.8179 14.7677 60.5602 14.0451 60.1307 13.4028C59.6153 12.8408 58.9281 12.5197 58.0691 12.5197C57.2102 12.5197 56.4371 12.8408 56.0076 13.4028C55.4922 13.9648 55.3204 14.7677 55.3204 15.7311V16.2129C55.3204 17.3369 55.5781 18.1397 56.0076 18.782C56.523 19.2638 57.2102 19.5849 58.0691 19.5849Z" fill="black"/>
<path d="M73.1883 22.5555C72.1575 22.5555 71.2985 22.395 70.4396 22.1541C69.5806 21.9132 68.8934 21.5118 68.2921 20.9498C67.6908 20.3878 67.1754 19.7455 66.9177 18.9426C66.66 18.1397 66.4023 17.1763 66.4023 16.1326V15.6508C66.4023 14.6874 66.5741 13.8042 66.9177 13.0014C67.2613 12.1985 67.7767 11.5562 68.378 11.0745C68.9793 10.5125 69.6665 10.111 70.5255 9.87018C71.3844 9.62932 72.2434 9.46875 73.1883 9.46875C74.2191 9.46875 75.078 9.62932 75.8511 9.87018C76.6242 10.111 77.2255 10.4322 77.7409 10.9139C78.2563 11.3153 78.6858 11.8774 78.9435 12.4394C79.2011 13.0014 79.3729 13.6437 79.4588 14.286H75.5075C75.3357 13.724 75.1639 13.2422 74.7345 13.0014C74.3909 12.6802 73.8755 12.5197 73.1883 12.5197C72.3293 12.5197 71.728 12.7605 71.1267 13.3225C70.6113 13.8845 70.3537 14.6874 70.3537 15.7311V16.2129C70.3537 17.4172 70.6113 18.22 71.1267 18.782C71.6421 19.344 72.3293 19.5849 73.1883 19.5849C73.7896 19.5849 74.305 19.4243 74.6486 19.1835C75.078 18.8623 75.3357 18.4609 75.5075 17.8989H79.4588C79.3729 18.6215 79.2011 19.2638 78.9435 19.9061C78.5999 20.4681 78.1704 21.0301 77.655 21.4315C77.1396 21.8329 76.4524 22.1541 75.6793 22.395C74.9921 22.395 74.1332 22.5555 73.1883 22.5555Z" fill="black"/>
<path d="M81.4316 9.78906H85.2971V14.526H86.3278L90.0214 9.78906H94.2304L89.3343 15.65L94.4881 22.2335H89.9355L86.3278 17.2558H85.2971V22.2335H81.4316V9.78906Z" fill="black"/>
<path d="M99.9022 22.549C99.215 22.549 98.5278 22.4688 98.0124 22.2279C97.4112 21.987 96.9817 21.7462 96.5522 21.425C96.2086 21.1039 95.865 20.6222 95.6932 20.1404C95.5214 19.6587 95.3496 19.177 95.3496 18.615C95.3496 17.4107 95.7791 16.4472 96.5522 15.8049C97.3253 15.1626 98.6137 14.8415 100.246 14.8415H104.025V14.3598C104.025 13.6372 103.854 13.0752 103.424 12.8343C103.08 12.5132 102.479 12.4329 101.878 12.4329C101.277 12.4329 100.761 12.5132 100.503 12.754C100.16 12.9146 100.074 13.2358 99.9881 13.6372H96.1227C96.1227 13.0752 96.2945 12.5132 96.5522 12.1117C96.8099 11.63 97.2394 11.2286 97.6689 10.8271C98.1842 10.506 98.7855 10.1848 99.4727 10.0243C100.16 9.78341 101.019 9.70312 101.964 9.70312C102.823 9.70312 103.596 9.78341 104.369 9.94399C105.056 10.1046 105.743 10.4257 106.259 10.8271C106.774 11.2286 107.204 11.7103 107.461 12.3526C107.719 12.9949 107.891 13.7978 107.891 14.6809V19.0967C107.891 19.739 107.891 20.301 107.977 20.863C107.977 21.3447 108.063 21.8265 108.148 22.3082H104.455C104.455 22.0673 104.369 21.8265 104.369 21.5856C104.369 21.3447 104.369 21.1039 104.369 20.863C103.939 21.3447 103.424 21.7462 102.737 22.1476C101.964 22.3885 101.019 22.549 99.9022 22.549ZM101.191 19.9799C102.05 19.9799 102.737 19.739 103.252 19.3376C103.854 18.9361 104.111 18.2938 104.111 17.491V17.0092H101.105C100.503 17.0092 100.074 17.1698 99.8163 17.4107C99.5586 17.7318 99.3868 18.053 99.3868 18.3741C99.3868 18.8558 99.5586 19.177 99.8163 19.4981C100.074 19.8193 100.503 19.9799 101.191 19.9799Z" fill="black"/>
<path d="M109.439 19.2629H110.814C111.157 18.7812 111.415 18.1389 111.587 17.2558C111.759 16.3726 111.845 15.2486 111.845 13.8034V9.78906H122.754V19.2629H124.3V25.2042H121.036V22.2335H112.704V25.2042H109.439V19.2629ZM118.974 19.2629V12.7597H115.452V14.2851C115.452 15.4894 115.366 16.4529 115.281 17.2558C115.195 18.0586 114.937 18.7812 114.679 19.2629H118.974Z" fill="black"/>
<path d="M130.39 22.549C129.703 22.549 129.016 22.4688 128.501 22.2279C127.899 21.987 127.47 21.7462 127.04 21.425C126.697 21.1039 126.353 20.6222 126.181 20.1404C126.01 19.6587 125.838 19.177 125.838 18.615C125.838 17.4107 126.267 16.4472 127.04 15.8049C127.814 15.1626 129.102 14.8415 130.734 14.8415H134.514V14.3598C134.514 13.6372 134.342 13.0752 133.912 12.8343C133.569 12.5132 132.967 12.4329 132.366 12.4329C131.765 12.4329 131.249 12.5132 130.992 12.754C130.648 12.9146 130.562 13.2358 130.476 13.6372H126.611C126.611 13.0752 126.783 12.5132 127.04 12.1117C127.298 11.63 127.728 11.2286 128.157 10.8271C128.587 10.4257 129.274 10.1848 129.961 10.0243C130.648 9.78341 131.507 9.70312 132.452 9.70312C133.311 9.70312 134.084 9.78341 134.857 9.94399C135.63 10.1046 136.232 10.4257 136.747 10.8271C137.262 11.2286 137.692 11.7103 137.95 12.3526C138.207 12.9949 138.379 13.7978 138.379 14.6809V19.0967C138.379 19.739 138.379 20.301 138.465 20.863C138.551 21.425 138.551 21.8265 138.637 22.3082H134.943C134.943 22.0673 134.857 21.8265 134.857 21.5856C134.857 21.3447 134.857 21.1039 134.857 20.863C134.428 21.3447 133.912 21.7462 133.225 22.1476C132.452 22.3885 131.507 22.549 130.39 22.549ZM131.593 19.9799C132.452 19.9799 133.139 19.739 133.655 19.3376C134.256 18.9361 134.514 18.2938 134.514 17.491V17.0092H131.507C130.906 17.0092 130.476 17.1698 130.219 17.4107C129.961 17.7318 129.789 18.053 129.789 18.3741C129.789 18.8558 129.961 19.177 130.219 19.4981C130.476 19.8193 130.992 19.9799 131.593 19.9799Z" fill="black"/>
<path d="M147.143 22.5555C146.113 22.5555 145.254 22.395 144.395 22.1541C143.536 21.9132 142.848 21.5118 142.247 20.9498C141.646 20.3878 141.131 19.7455 140.873 18.9426C140.529 18.1397 140.357 17.1763 140.357 16.1326V15.6508C140.357 14.6874 140.529 13.8042 140.873 13.0014C141.216 12.1985 141.732 11.5562 142.333 11.0745C142.934 10.5125 143.622 10.111 144.481 9.87018C145.34 9.62932 146.198 9.46875 147.143 9.46875C148.174 9.46875 149.033 9.62932 149.806 9.87018C150.579 10.111 151.181 10.4322 151.696 10.9139C152.211 11.3153 152.641 11.8774 152.899 12.4394C153.156 13.0014 153.328 13.6437 153.414 14.286H149.463C149.291 13.724 149.119 13.2422 148.69 13.0014C148.26 12.7605 147.831 12.5197 147.143 12.5197C146.284 12.5197 145.683 12.7605 145.082 13.3225C144.566 13.8845 144.309 14.6874 144.309 15.7311V16.2129C144.309 17.4172 144.566 18.22 145.082 18.782C145.597 19.344 146.284 19.5849 147.143 19.5849C147.745 19.5849 148.26 19.4243 148.604 19.1835C149.033 18.8623 149.291 18.4609 149.463 17.8989H153.414C153.328 18.6215 153.156 19.2638 152.899 19.9061C152.555 20.4681 152.125 21.0301 151.61 21.4315C151.095 21.8329 150.407 22.1541 149.634 22.395C148.861 22.395 148.002 22.5555 147.143 22.5555Z" fill="black"/>
<path d="M158.658 12.7597H154.535V9.78906H166.647V12.7597H162.524V22.2335H158.658V12.7597Z" fill="black"/>
<path d="M168.361 9.7899H171.969V11.4759C172.141 11.2351 172.313 10.9942 172.57 10.7533C172.828 10.5125 173.172 10.2716 173.515 10.111C173.859 9.95047 174.288 9.7899 174.718 9.62932C175.147 9.54904 175.663 9.46875 176.092 9.46875C177.982 9.46875 179.356 9.95047 180.387 10.9942C181.332 12.0379 181.847 13.5634 181.847 15.6508V16.1326C181.847 17.1763 181.676 18.1397 181.418 18.9426C181.16 19.7455 180.731 20.3878 180.301 20.9498C179.786 21.5118 179.184 21.9132 178.497 22.1541C177.81 22.395 177.037 22.5555 176.092 22.5555C175.319 22.5555 174.632 22.395 173.945 22.0738C173.258 21.7527 172.656 21.2709 172.227 20.7089V26.9713H168.361V9.7899ZM175.147 19.5849C175.92 19.5849 176.522 19.2638 177.037 18.7018C177.552 18.1397 177.81 17.2566 177.81 16.1326V15.6508C177.81 14.6071 177.552 13.8042 177.037 13.2422C176.522 12.6802 175.92 12.4394 175.061 12.4394C174.202 12.4394 173.515 12.6802 173 13.1619C172.399 13.6437 172.141 14.3663 172.141 15.3297V16.534C172.141 17.4974 172.399 18.3003 173 18.782C173.687 19.2638 174.374 19.5849 175.147 19.5849Z" fill="black"/>
<mask id="mask0_695_3342" style="mask-type:luminance" maskUnits="userSpaceOnUse" x="0" y="0" width="29" height="27">
<path d="M6.61415 14.1305L0 19.6703V14.1305H6.61415ZM15.1181 0V12.7656H28.7758C28.4322 5.94123 22.5053 0.401435 15.1181 0ZM0 20.8746V26.8961H13.7437V20.8746L6.87184 15.094L0 20.8746ZM15.1181 14.1305V18.6266V26.8961C22.5053 26.575 28.4322 21.0352 28.7758 14.1305H15.1181ZM13.6578 19.7506V14.2108H7.04364L13.6578 19.7506ZM0 12.8459H8.5039H13.6578V0C6.27056 0.321148 0.343592 5.86095 0 12.8459Z" fill="white"/>
</mask>
<g mask="url(#mask0_695_3342)">
<path d="M28.7758 12.6038C28.3463 5.85966 22.5053 0.400144 15.2898 -0.0012906C6.95774 -0.483012 0 5.77937 0 13.4869V26.9751H14.4309C22.6771 26.9751 29.2912 20.4719 28.7758 12.6038Z" fill="black"/>
</g>
</svg>
