<svg width="107" height="54" viewBox="0 0 107 54" fill="none" xmlns="http://www.w3.org/2000/svg">
<path d="M50.8885 53.4917C40.1609 53.2474 28.8029 51.4437 18.1131 46.8125C12.9321 44.5667 8.20489 41.7159 4.53657 37.5617C-1.71596 30.4869 -1.48905 22.167 5.11644 15.3715C10.121 10.2283 16.4365 6.92357 23.395 4.73596C43.7409 -1.6756 64.1121 -1.60578 84.3572 5.11995C90.5971 7.1912 96.3202 10.1933 100.883 14.7547C105.825 19.6769 108.069 25.3088 105.586 31.9531C104.06 36.0141 101.06 39.121 97.4673 41.7508C90.7862 46.6147 83.0461 49.3609 74.8775 51.1994C67.3266 52.8983 59.6496 53.6081 50.8885 53.5033V53.4917ZM53.1071 52.9332C62.8011 52.8866 72.2681 51.7463 81.4452 48.8372C88.5549 46.5798 95.1478 43.5195 100.417 38.4228C107.867 31.22 107.829 22.3299 100.417 15.1271C97.4421 12.2413 93.9629 9.98389 90.1559 8.15701C81.6595 4.08433 72.558 1.9549 63.0784 1.11709C48.8211 -0.139619 34.879 1.04728 21.4789 6.01594C15.3146 8.30828 9.69238 11.4035 5.29292 16.1278C-0.707489 22.5743 -0.896577 30.2542 4.8265 36.9101C8.77215 41.4948 13.9784 44.5085 19.6889 46.8474C30.3282 51.211 41.5727 52.8517 53.1197 52.9332H53.1071Z" fill="black"/>
<path d="M48.0378 23.1417C48.2773 22.9672 48.3781 22.8625 48.5042 22.8043C50.0169 22.1061 51.2397 21.1752 51.2145 19.4531C51.1892 17.6844 49.9413 16.6487 48.3655 16.0087C47.0923 15.4968 45.7057 14.9848 44.3442 14.9382C40.386 14.7986 36.4151 14.8917 32.1795 14.8917C33.9696 19.744 35.7092 24.4799 37.4866 29.3089H25.4858C23.2798 23.0952 21.1116 16.9629 18.8677 10.6328H86.8135C82.6536 15.008 78.5693 19.3018 74.3085 23.7817C81.809 28.3664 89.1834 32.8813 96.5705 37.4078L96.5327 37.6754H40.6003C41.7474 40.631 42.7937 43.2957 43.9156 46.1931C41.5457 46.1931 39.3649 46.1931 37.1841 46.1931C36.1252 46.1931 35.0663 46.2047 34.02 46.1931C31.2341 46.1466 31.9778 46.6469 30.9568 44.1335C30.1752 42.2368 29.4441 40.3052 28.7759 38.3736C28.4986 37.5823 28.0574 37.303 27.1498 37.3147C24.2378 37.3612 21.3133 37.2914 18.4013 37.3496C17.4558 37.3612 16.9516 37.1634 16.6995 36.2558C16.2709 34.65 15.6784 33.0791 15.0859 31.2871C15.7919 31.2871 16.3339 31.2871 16.8634 31.2871C26.0153 31.322 35.1671 31.3453 44.319 31.3918C46.1721 31.3918 48.0378 31.5896 49.8908 31.4849C51.0128 31.4267 52.1977 31.1242 53.1936 30.6587C55.3366 29.658 55.7274 27.645 54.3029 25.8646C53.1432 24.4334 51.2649 23.5956 48.0504 23.1417H48.0378Z" fill="black"/>
</svg>
