<svg width="1041" height="819" viewBox="0 0 1041 819" fill="none" xmlns="http://www.w3.org/2000/svg">
<g filter="url(#filter0_f_703_3720)">
<path d="M543.902 319.056C457.797 422.743 149.213 549.706 208.363 598.827C267.514 647.948 672 600.626 758.105 496.94C844.211 393.254 866.063 269.379 806.912 220.257C747.762 171.136 630.008 215.37 543.902 319.056Z" fill="#7098FF"/>
<path d="M543.902 319.056C457.797 422.743 149.213 549.706 208.363 598.827C267.514 647.948 672 600.626 758.105 496.94C844.211 393.254 866.063 269.379 806.912 220.257C747.762 171.136 630.008 215.37 543.902 319.056Z" fill="url(#paint0_radial_703_3720)"/>
<path d="M543.902 319.056C457.797 422.743 149.213 549.706 208.363 598.827C267.514 647.948 672 600.626 758.105 496.94C844.211 393.254 866.063 269.379 806.912 220.257C747.762 171.136 630.008 215.37 543.902 319.056Z" fill="url(#paint1_radial_703_3720)"/>
<path d="M543.902 319.056C457.797 422.743 149.213 549.706 208.363 598.827C267.514 647.948 672 600.626 758.105 496.94C844.211 393.254 866.063 269.379 806.912 220.257C747.762 171.136 630.008 215.37 543.902 319.056Z" fill="url(#paint2_radial_703_3720)"/>
<path d="M543.902 319.056C457.797 422.743 149.213 549.706 208.363 598.827C267.514 647.948 672 600.626 758.105 496.94C844.211 393.254 866.063 269.379 806.912 220.257C747.762 171.136 630.008 215.37 543.902 319.056Z" fill="url(#paint3_radial_703_3720)"/>
<path d="M543.902 319.056C457.797 422.743 149.213 549.706 208.363 598.827C267.514 647.948 672 600.626 758.105 496.94C844.211 393.254 866.063 269.379 806.912 220.257C747.762 171.136 630.008 215.37 543.902 319.056Z" fill="url(#paint4_radial_703_3720)"/>
<path d="M543.902 319.056C457.797 422.743 149.213 549.706 208.363 598.827C267.514 647.948 672 600.626 758.105 496.94C844.211 393.254 866.063 269.379 806.912 220.257C747.762 171.136 630.008 215.37 543.902 319.056Z" fill="url(#paint5_radial_703_3720)"/>
<path d="M543.902 319.056C457.797 422.743 149.213 549.706 208.363 598.827C267.514 647.948 672 600.626 758.105 496.94C844.211 393.254 866.063 269.379 806.912 220.257C747.762 171.136 630.008 215.37 543.902 319.056Z" fill="url(#paint6_radial_703_3720)"/>
</g>
<defs>
<filter id="filter0_f_703_3720" x="0.886719" y="0.207031" width="1039.29" height="818.105" filterUnits="userSpaceOnUse" color-interpolation-filters="sRGB">
<feFlood flood-opacity="0" result="BackgroundImageFix"/>
<feBlend mode="normal" in="SourceGraphic" in2="BackgroundImageFix" result="shape"/>
<feGaussianBlur stdDeviation="100" result="effect1_foregroundBlur_703_3720"/>
</filter>
<radialGradient id="paint0_radial_703_3720" cx="0" cy="0" r="1" gradientUnits="userSpaceOnUse" gradientTransform="translate(665.513 378.909) rotate(117.512) scale(268.738 167.489)">
<stop offset="0.45766" stop-color="#003FE1" stop-opacity="0"/>
<stop offset="0.932292" stop-color="#003FE1"/>
</radialGradient>
<radialGradient id="paint1_radial_703_3720" cx="0" cy="0" r="1" gradientUnits="userSpaceOnUse" gradientTransform="translate(530.79 545.849) rotate(-82.8015) scale(284.35 335.654)">
<stop stop-color="#003FE1"/>
<stop offset="1" stop-color="#003FE1" stop-opacity="0"/>
</radialGradient>
<radialGradient id="paint2_radial_703_3720" cx="0" cy="0" r="1" gradientUnits="userSpaceOnUse" gradientTransform="translate(602.002 257.213) rotate(117.562) scale(271.161 171.742)">
<stop stop-color="#AD54F3"/>
<stop offset="0.970579" stop-color="#AD54F3" stop-opacity="0"/>
</radialGradient>
<radialGradient id="paint3_radial_703_3720" cx="0" cy="0" r="1" gradientUnits="userSpaceOnUse" gradientTransform="translate(745.646 417.117) rotate(168.164) scale(320.617 304.016)">
<stop stop-color="#3834FF"/>
<stop offset="1" stop-color="#3834FF" stop-opacity="0"/>
</radialGradient>
<radialGradient id="paint4_radial_703_3720" cx="0" cy="0" r="1" gradientUnits="userSpaceOnUse" gradientTransform="translate(731.85 205.458) rotate(116.916) scale(340.243 84.7453)">
<stop stop-color="#AD54F3"/>
<stop offset="1" stop-color="#AD54F3" stop-opacity="0"/>
</radialGradient>
<radialGradient id="paint5_radial_703_3720" cx="0" cy="0" r="1" gradientUnits="userSpaceOnUse" gradientTransform="translate(836.21 294.951) rotate(130.774) scale(401.979 205.044)">
<stop stop-color="#00A3FF"/>
<stop offset="1" stop-color="#00A3FF" stop-opacity="0"/>
</radialGradient>
<radialGradient id="paint6_radial_703_3720" cx="0" cy="0" r="1" gradientUnits="userSpaceOnUse" gradientTransform="translate(749.666 355.379) rotate(143.288) scale(476.53 307.965)">
<stop offset="0.410575" stop-color="#F354D0" stop-opacity="0"/>
<stop offset="1" stop-color="#F354D0"/>
</radialGradient>
</defs>
</svg>
