<svg width="748" height="662" viewBox="0 0 748 662" fill="none" xmlns="http://www.w3.org/2000/svg">
<path d="M113.927 615.336C104.089 605.493 10.4995 604.246 0.214844 662H711.499C711.499 615.336 628.578 566.703 569.499 604.246C597.078 544.411 475.499 499.356 444.93 546.697C446.345 534.51 482.999 372.989 482.999 372.989L445.499 363C445.499 363 373.291 523.757 369.499 536.317C354.499 510.345 288.499 507.847 273.8 554.581C231.053 520.39 136.48 518.139 113.927 615.336Z" fill="white"/>
<g clip-path="url(#clip0_1924_5743)">
<path fill-rule="evenodd" clip-rule="evenodd" d="M579.311 225.469C577.199 221.762 571.754 222.072 570.056 225.986L557.174 255.666L546.699 279.802C546.161 281.041 546.126 282.46 546.643 283.77L556.407 308.515C556.758 309.404 556.857 310.338 556.684 311.271L548.233 362.179C547.724 365.136 549.897 367.901 552.874 368.186L565.977 369.34C568.217 369.538 570.268 368.296 571.192 366.256L608.308 280.737C608.959 279.237 608.883 277.537 608.059 276.132L579.254 225.6L579.311 225.469ZM498.886 190.549L442.308 204.008C440.719 204.365 439.426 205.47 438.774 206.971L401.63 292.554C400.752 294.576 401.264 296.969 402.938 298.471L412.729 307.258C414.988 309.285 418.473 308.938 420.286 306.546L451.697 265.608C452.261 264.845 453.01 264.279 453.899 263.928L478.64 254.166C479.902 253.667 480.915 252.673 481.5 251.415L491.975 227.279L504.857 197.599C506.556 193.685 503.064 189.495 498.914 190.484L498.886 190.549Z" fill="#5481F3"/>
<path d="M458.003 305.556C450.189 339.724 435.074 384.017 440.766 398.854C445.102 410.117 455.575 414.742 466.857 410.182C481.861 404.1 502.543 363.503 523.23 333.878L458.003 305.556Z" fill="#FFF261"/>
<path d="M482.373 285.127C474.559 319.295 449.931 367.288 455.783 382.116C459.64 391.892 460.41 391.102 468.828 387.78C483.888 381.838 500.822 331.745 521.509 302.12L482.373 285.127Z" fill="#FDBF00"/>
<path d="M610.635 7.46691C581.937 20.8994 532.577 44.4313 496.168 128.319C469.386 190.028 455.965 269.71 454.624 319.596L515.742 346.133C551.102 311.367 599.632 247.24 626.641 185.009C662.823 101.643 646.136 49.3561 636.744 18.8423C632.549 5.19854 622.565 1.94851 610.653 7.51368" fill="#2B3042"/>
<path d="M610.634 7.46365C581.936 20.8961 532.575 44.428 496.167 128.316C474.311 178.674 461.4 241.019 456.583 289.357L536.421 324.022C568.287 287.662 604.595 235.709 626.621 184.959C662.803 101.593 646.117 49.3061 636.724 18.7923C632.53 5.1485 622.545 1.89847 610.634 7.46365Z" fill="#C1CFFF"/>
<path d="M610.634 7.46365C581.936 20.8961 532.575 44.428 496.167 128.316C474.311 178.674 461.4 241.019 456.583 289.357L536.421 324.022C568.287 287.662 604.595 235.709 626.621 184.959C662.803 101.593 646.117 49.3061 636.724 18.7923C632.53 5.1485 622.545 1.89847 610.634 7.46365Z" fill="#D0D8FF"/>
<path d="M598.809 141.875C619.473 133.721 629.614 110.357 621.458 89.6901C613.303 69.0229 589.941 58.879 569.277 67.0329C548.613 75.1868 538.472 98.5509 546.628 119.218C554.783 139.885 578.145 150.029 598.809 141.875Z" fill="#2B3042"/>
<path d="M591.427 123.164C601.759 119.087 606.829 107.405 602.752 97.0716C598.674 86.738 586.993 81.666 576.661 85.743C566.329 89.82 561.259 101.502 565.336 111.836C569.414 122.169 581.095 127.241 591.427 123.164Z" fill="#85A7FF"/>
</g>
<defs>
<clipPath id="clip0_1924_5743">
<rect width="321.884" height="321.884" fill="white" transform="translate(330 118.148) rotate(-21.534)"/>
</clipPath>
</defs>
</svg>
